<?xml version="1.0" standalone="no"?>
<!DOCTYPE svg PUBLIC "-//W3C//DTD SVG 1.1//EN" "http://www.w3.org/Graphics/SVG/1.1/DTD/svg11.dtd" >
<!--
2013-9-30: Created.
-->
<svg>
<metadata>
Created by iconfont
</metadata>
<defs>

<font id="iconfont" horiz-adv-x="1024" >
  <font-face
    font-family="iconfont"
    font-weight="500"
    font-stretch="normal"
    units-per-em="1024"
    ascent="896"
    descent="-128"
  />
    <missing-glyph />
    
    <glyph glyph-name="shouye" unicode="&#58983;" d="M544.938667 796.736l377.002666-435.456c12.309333-14.933333 15.296-35.52 7.786667-53.397333a51.626667 51.626667 0 0 0-43.562667-31.509334l-3.968-0.170666-33.621333 0.021333v-294.186667c0-5.653333-2.218667-11.072-6.186667-15.061333a21.12 21.12 0 0 0-14.976-6.229333H562.773333V217.130667a20.309333 20.309333 0 0 1-20.309333 20.330666h-65.066667a20.309333 20.309333 0 0 1-20.330666-20.330666v-256.341334l-264.469334-0.021333a21.12 21.12 0 0 0-14.954666 6.229333 21.354667 21.354667 0 0 0-6.186667 15.061334l-0.042667 294.186666H137.664c-19.626667 0-37.589333 11.221333-46.293333 28.928a52.181333 52.181333 0 0 0 5.290666 54.549334l2.730667 3.285333L472.021333 793.130667a51.413333 51.413333 0 0 0 72.917334 3.626666z"  horiz-adv-x="1024" />

    
    <glyph glyph-name="icon_analytics" unicode="&#58982;" d="M938.666667 0.08533299999999144v-21.333333a21.333333 21.333333 0 0 0-21.333334-21.333333H106.666667a21.333333 21.333333 0 0 0-21.333334 21.333333v21.333333a21.333333 21.333333 0 0 0 21.333334 21.333334h810.666666a21.333333 21.333333 0 0 0 21.333334-21.333334zM416.938667 384.085333v-64H204.16v-298.666666h-64.64v341.333333a21.333333 21.333333 0 0 0 21.333333 21.333333h256.064zM604.245333 640.0426669999999v-64h-183.189333V20.480000000000018h-64V618.709333a21.333333 21.333333 0 0 0 21.333333 21.333334h225.856zM587.626667 21.418667000000028V787.029333c0 13.077333 9.557333 23.68 21.333333 23.68H865.066667c11.776 0 21.333333-10.602667 21.333333-23.68v-766.570666m-64 0.96v725.333333h-170.773333v-724.864"  horiz-adv-x="1024" />

    
    <glyph glyph-name="keshihuashijian" unicode="&#58972;" d="M511.189333 518.208a142.805333 142.805333 0 1 1 0-285.610667 142.805333 142.805333 0 0 1 0 285.610667m0-61.205333a81.685333 81.685333 0 0 0 81.6-81.6 81.685333 81.685333 0 0 0-81.6-81.6 81.685333 81.685333 0 0 0-81.6 81.6 81.685333 81.685333 0 0 0 81.6 81.6M511.189333 661.013333c-209.834667 0-370.922667-128-444.522666-277.034666a19.84 19.84 0 0 1-2.026667-8.576c0-2.965333 0.704-5.738667 1.834667-8.256l0.106666-0.490667c73.450667-149.269333 234.474667-276.864 444.608-276.864 210.133333 0 371.157333 127.573333 444.629334 276.864l0.106666 0.490667a20.309333 20.309333 0 0 1 1.813334 8.256 19.84 19.84 0 0 1-2.048 8.576c-73.6 149.013333-234.666667 277.034667-444.522667 277.034666m0-61.205333c188.309333 0 319.530667-117.12 380.032-224.661333-62.165333-111.594667-191.210667-224.149333-380.010667-224.149334-188.949333 0-318.037333 112.682667-380.010666 224.149334 60.48 107.52 191.701333 224.661333 380.010666 224.661333"  horiz-adv-x="1024" />

    
    <glyph glyph-name="yuanshijian" unicode="&#58973;" d="M917.333333 789.333333a21.333333 21.333333 0 0 0 21.333334-21.333333v-746.666667a21.333333 21.333333 0 0 0-21.333334-21.333333H106.666667a21.333333 21.333333 0 0 0-21.333334 21.333333V768a21.333333 21.333333 0 0 0 21.333334 21.333333h810.666666z m-42.666666-213.333333H149.333333v-512h725.333334V576z m-346.666667-42.666667a21.333333 21.333333 0 0 0 21.333333-21.333333v-112.874667a85.610667 85.610667 0 0 0 47.146667-47.146666L704 352a21.333333 21.333333 0 0 0 21.333333-21.333333v-21.333334a21.333333 21.333333 0 0 0-21.333333-21.333333h-107.541333a85.610667 85.610667 0 0 0-47.125334-47.125333V128a21.333333 21.333333 0 0 0-21.333333-21.333333h-21.333333a21.333333 21.333333 0 0 0-21.333334 21.333333v112.853333a85.610667 85.610667 0 0 0-47.125333 47.146667H320a21.333333 21.333333 0 0 0-21.333333 21.333333v21.333334a21.333333 21.333333 0 0 0 21.333333 21.333333h118.186667a85.610667 85.610667 0 0 0 47.146666 47.146667V512a21.333333 21.333333 0 0 0 21.333334 21.333333h21.333333zM149.333333 725.333333v-85.333333h725.333334V725.333333H149.333333z"  horiz-adv-x="1024" />

    
    <glyph glyph-name="shijianshuxing" unicode="&#58974;" d="M310.848 746.666667l170.752-127.978667h458.005333c5.397333 0 10.602667-2.133333 14.421334-5.909333 3.84-3.776 5.973333-8.896 5.973333-14.229334v-557.077333a20.266667 20.266667 0 0 0-20.394667-20.138667H84.394667A20.266667 20.266667 0 0 0 64 41.472V725.973333a20.266667 20.266667 0 0 0 20.394667 20.16h111.68L310.826667 746.666667z m-20.437333-60.501334l-94.208-0.469333v0.021333H125.226667v-603.946666h773.546666V558.293333H461.013333l-170.602666 127.893334z m231.765333-327.381333c11.242667 0 20.373333-6.784 20.373333-15.168v-182.997333c0-8.362667-9.130667-15.146667-20.373333-15.146667h-20.352c-11.242667 0-20.373333 6.784-20.373333 15.146667v182.997333c0 8.384 9.130667 15.168 20.373333 15.168h20.352zM512 480a40.746667 40.746667 0 1 0 0-81.450667 40.746667 40.746667 0 0 0 0 81.450667z"  horiz-adv-x="1024" />

    
    <glyph glyph-name="wupinshuxing" unicode="&#58975;" d="M491.605333 824.789333a54.101333 54.101333 0 0 0 51.84 0l335.402667-182.976a54.101333 54.101333 0 0 0 28.202667-47.509333v-386.154667c0-18.922667-9.877333-36.48-26.069334-46.293333l-330.986666-200.618667v-3.349333l-5.632-0.021333c-17.066667-9.749333-38.08-9.472-54.890667 0.704l1.237333-0.661334-5.632-0.021333v3.413333L154.24 161.856a54.101333 54.101333 0 0 0-25.941333 42.517333l-0.128 3.754667V594.325333c0 19.797333 10.816 37.973333 28.181333 47.466667l335.232 182.997333zM193.109333 552.469333v-338.218666l291.946667-177.045334V393.109333l-291.946667 159.36z m648.981334 5.248l-292.096-164.288v-356.202666l292.096 177.024v343.466666zM517.546667 764.928l-289.152-157.76 288.896-157.696 284.842666 160.256-284.586666 155.2z"  horiz-adv-x="1024" />

    
    <glyph glyph-name="weidubiao" unicode="&#58976;" d="M859.477333 832a20.288 20.288 0 0 0 20.288-20.288v-852.096a20.288 20.288 0 0 0-20.288-20.288l-689.856-0.042667-2.346666 0.149334A20.288 20.288 0 0 0 149.333333-40.426667V811.733333A20.288 20.288 0 0 0 169.621333 832h689.856z m-40.682666-649.216h-164.629334a152.981333 152.981333 0 0 0-280.704 0H210.325333v-182.613333l608.490667 0.021333v182.613333z m0.021333 588.352H210.346667V243.626667h211.413333a92.074667 92.074667 0 0 1 184.042667-4.352l0.106666 4.330666 212.906667 0.021334 0.021333 527.488z m-121.664-324.693333a20.288 20.288 0 0 0 20.288-20.266667v-20.309333a20.288 20.288 0 0 0-20.266667-20.266667H331.946667a20.288 20.288 0 0 0-20.288 20.266667v20.288a20.288 20.288 0 0 0 20.266666 20.288h365.226667z m0 182.656c11.221333 0 20.288-9.088 20.288-20.288v-20.288a20.288 20.288 0 0 0-20.266667-20.288H331.946667a20.288 20.288 0 0 0-20.288 20.288v20.288c0 11.2 9.088 20.288 20.266666 20.288h365.226667z"  horiz-adv-x="1024" />

    
    <glyph glyph-name="xunishijian" unicode="&#58977;" d="M916.010667 86.442667a21.290667 21.290667 0 0 0 21.12-18.496l0.170666-2.773334v-85.184a21.290667 21.290667 0 0 0-18.496-21.12l-2.794666-0.170666h-85.162667a21.290667 21.290667 0 0 0-21.12 18.496l-0.170667 2.794666v21.290667c0 10.922667 8.213333 19.925333 18.794667 21.162667l2.496 0.128h42.581333v42.581333c0 10.922667 8.213333 19.925333 18.794667 21.162667l2.496 0.128h21.290667z m-787.754667 0c11.733333 0 21.290667-9.536 21.290667-21.290667v-42.581333h42.581333c11.776 0 21.290667-9.514667 21.290667-21.290667v-21.290667a21.290667 21.290667 0 0 0-21.290667-21.290666H106.965333a21.290667 21.290667 0 0 0-21.290666 21.290666v85.162667a21.290667 21.290667 0 0 0 21.290666 21.290667h21.290667z m574.848-63.872c11.733333 0 21.290667-9.536 21.290667-21.290667v-21.290667a21.290667 21.290667 0 0 0-21.290667-21.290666H575.36a21.290667 21.290667 0 0 0-21.290667 21.290666v21.290667c0 11.754667 9.536 21.290667 21.290667 21.290667h127.744z m-255.488 0c11.733333 0 21.290667-9.536 21.290667-21.290667v-21.290667a21.290667 21.290667 0 0 0-21.290667-21.290666h-127.744a21.290667 21.290667 0 0 0-21.290667 21.290666v21.290667c0 11.754667 9.514667 21.290667 21.290667 21.290667h127.744z m74.56 442.88c11.242667 0 20.373333-9.514667 20.373333-21.226667v-256.213333c0-11.733333-9.130667-21.226667-20.373333-21.226667h-20.352c-11.242667 0-20.373333 9.514667-20.373333 21.248V444.224c0 11.733333 9.130667 21.226667 20.373333 21.226667h20.352z m393.813333-123.52a21.290667 21.290667 0 0 0 21.312-21.290667v-127.744a21.290667 21.290667 0 0 0-21.290666-21.290667h-21.290667a21.290667 21.290667 0 0 0-21.290667 21.290667V320.64c0 11.754667 9.536 21.290667 21.290667 21.290667h21.290667z m-787.733333 0c10.901333 0 19.904-8.213333 21.12-18.794667l0.170667-2.496v-127.744a21.290667 21.290667 0 0 0-18.816-21.141333l-2.474667-0.149334h-21.290667a21.290667 21.290667 0 0 0-21.12 18.496l-0.170666 2.794667V320.64a21.290667 21.290667 0 0 0 18.474666 21.12l2.816 0.170667h21.290667z m787.754667 255.488a21.290667 21.290667 0 0 0 21.290666-21.290667v-127.744a21.290667 21.290667 0 0 0-21.290666-21.290667h-21.290667a21.290667 21.290667 0 0 0-21.290667 21.290667v127.744c0 11.776 9.536 21.290667 21.290667 21.290667h21.290667z m-787.754667 0c10.901333 0 19.904-8.213333 21.12-18.794667l0.170667-2.496v-127.744a21.290667 21.290667 0 0 0-18.816-21.141333l-2.474667-0.149334h-21.290667a21.290667 21.290667 0 0 0-21.12 18.496l-0.170666 2.794667v127.744a21.290667 21.290667 0 0 0 18.474666 21.12l2.816 0.170667h21.290667zM512 608a40.746667 40.746667 0 1 0 0-81.450667 40.746667 40.746667 0 0 0 0 81.450667z m404.010667 202.325333a21.290667 21.290667 0 0 0 21.12-18.474666l0.170666-2.816v-85.162667a21.290667 21.290667 0 0 0-18.496-21.098667l-2.794666-0.192h-21.290667a21.290667 21.290667 0 0 0-21.162667 18.816l-0.128 2.474667V746.453333h-42.581333a21.290667 21.290667 0 0 0-21.162667 18.816l-0.128 2.474667v21.290667a21.290667 21.290667 0 0 0 18.496 21.12l2.773334 0.170666h85.184z m-723.882667 0a21.290667 21.290667 0 0 0 21.290667-21.290666v-21.290667a21.290667 21.290667 0 0 0-21.290667-21.290667H149.546667v-42.581333a21.269333 21.269333 0 0 0-21.290667-21.290667h-21.290667a21.290667 21.290667 0 0 0-21.290666 21.290667V789.034667a21.290667 21.290667 0 0 0 21.290666 21.290666h85.162667z m510.976 0a21.290667 21.290667 0 0 0 21.290667-21.290666v-21.290667a21.290667 21.290667 0 0 0-21.290667-21.290667H575.36a21.290667 21.290667 0 0 0-21.290667 21.290667v21.290667a21.290667 21.290667 0 0 0 21.290667 21.290666h127.744z m-255.488 0a21.290667 21.290667 0 0 0 21.290667-21.290666v-21.290667a21.290667 21.290667 0 0 0-21.290667-21.290667h-127.744a21.290667 21.290667 0 0 0-21.290667 21.290667v21.290667a21.290667 21.290667 0 0 0 21.290667 21.290666h127.744z"  horiz-adv-x="1024" />

    
    <glyph glyph-name="rukuguize" unicode="&#58978;" d="M775.36 339.392l7.893333-1.28 1.237334-0.213333c5.162667-0.938667 9.386667-4.565333 11.136-9.493334l0.576-2.154666 7.125333-38.592a159.573333 159.573333 0 0 0 39.317333-21.525334l5.930667-4.629333 36.906667 13.12a14.592 14.592 0 0 0 14.378666-2.730667l1.557334-1.578666 0.853333-0.96a201.386667 201.386667 0 0 0 33.28-55.04l2.88-7.552 0.426667-1.173334a14.570667 14.570667 0 0 0-2.666667-14.421333l-1.578667-1.557333-29.738666-25.429334c2.474667-15.210667 2.794667-30.677333 0.938666-45.973333l-0.938666-6.506667 29.738666-25.408c4.010667-3.456 5.802667-8.746667 4.821334-13.76l-0.597334-2.133333-0.426666-1.194667a202.24 202.24 0 0 0-31.04-56.298666l-5.12-6.272-0.832-0.981334a14.506667 14.506667 0 0 0-13.738667-4.864l-2.197333 0.576-36.885334 13.12a158.72 158.72 0 0 0-38.293333-23.36l-6.976-2.794666-7.125333-38.592a14.549333 14.549333 0 0 0-9.536-11.093334l-2.176-0.576-1.216-0.213333a203.605333 203.605333 0 0 0-63.253334-1.408l-8.917333 1.386667-1.237333 0.213333a14.570667 14.570667 0 0 0-11.157334 9.536l-0.554666 2.154667-7.189334 38.762666a157.973333 157.973333 0 0 0-39.018666 21.418667l-5.909334 4.650667-37.184-13.226667a14.592 14.592 0 0 0-14.336 2.752l-1.578666 1.557333-0.853334 0.981334a201.813333 201.813333 0 0 0-33.28 55.018666l-2.88 7.552-0.405333 1.194667a14.570667 14.570667 0 0 0 2.645333 14.378667l1.6 1.6 30.08 25.685333a161.706667 161.706667 0 0 0-0.896 45.44l0.896 6.4-30.08 25.706667a14.613333 14.613333 0 0 0-4.842666 13.824l0.597333 2.154666 0.426667 1.173334a202.24 202.24 0 0 0 31.018666 56.277333l5.141334 6.314667 0.853333 0.96a14.506667 14.506667 0 0 0 13.738667 4.885333l2.154666-0.576 37.184-13.205333a159.808 159.808 0 0 0 38.037334 23.253333l6.890666 2.794667 7.210667 38.784a14.549333 14.549333 0 0 0 9.514667 11.093333l2.176 0.554667 1.237333 0.213333a204.458667 204.458667 0 0 0 64.256 1.28z m67.413333 449.322667c11.605333 0 21.034667-9.408 21.034667-21.034667v-136.746667a21.034667 21.034667 0 0 0-21.034667-21.034666h-21.056a21.034667 21.034667 0 0 0-21.034666 21.034666V725.632H148.992v-723.456h309.930667a21.034667 21.034667 0 0 0 21.056-21.034667v-21.034666a21.034667 21.034667 0 0 0-21.056-21.034667h-352a21.034667 21.034667 0 0 0-21.056 21.034667L85.696 767.68c0 10.666667 7.978667 19.669333 18.581333 20.906667l2.432 0.128h736.064z m-95.616-544.917334c-28.245333 0-54.826667-10.965333-74.837333-30.997333a105.429333 105.429333 0 0 1-30.976-74.837333 105.386667 105.386667 0 0 1 30.976-74.816 105.429333 105.429333 0 0 1 74.837333-30.997334c28.266667 0 54.826667 11.072 74.837334 30.997334a105.429333 105.429333 0 0 1 30.997333 74.816c0 28.266667-11.050667 54.826667-30.997333 74.837333a105.066667 105.066667 0 0 1-74.837334 30.997333z m-324.906666 41.856a21.034667 21.034667 0 0 0 21.034666-21.034666v-21.034667a21.034667 21.034667 0 0 0-21.034666-21.034667H254.08a21.034667 21.034667 0 0 0-21.034667 21.034667v21.034667a21.034667 21.034667 0 0 0 21.034667 21.034666h168.149333z m126.229333 175.445334c11.605333 0 21.034667-9.408 21.034667-21.034667v-21.034667a21.034667 21.034667 0 0 0-21.034667-21.034666h-294.4a21.034667 21.034667 0 0 0-21.013333 21.034666v21.034667c0 11.626667 9.408 21.034667 21.034666 21.034667H548.48z m148.032 170.026666a21.034667 21.034667 0 0 0 21.034667-21.034666v-21.034667a21.034667 21.034667 0 0 0-21.034667-21.034667H254.08a21.034667 21.034667 0 0 0-21.034667 21.034667v21.034667c0 11.626667 9.408 21.056 21.034667 21.056h442.410667z"  horiz-adv-x="1024" />

    
    <glyph glyph-name="Session" unicode="&#58979;" d="M641.834667 832c12.074667 0 21.845333-9.792 21.845333-21.845333V788.266667c0-12.074667-9.770667-21.845333-21.845333-21.845334H367.573333c-95.893333 0-173.76-78.229333-173.76-174.848 0-94.762667 74.944-171.861333 168.341334-174.72l5.418666-0.085333h288.853334c132.373333 0 239.552-107.712 239.552-240.426667 0-130.602667-103.786667-236.928-233.258667-240.277333l-6.293333-0.085333H427.861333a21.845333 21.845333 0 0 0-21.845333 21.845333V-20.266667c0 12.074667 9.770667 21.845333 21.845333 21.845334h228.586667c95.893333 0 173.717333 78.186667 173.717333 174.805333 0 94.826667-74.922667 171.904-168.32 174.784l-5.397333 0.064h-288.853333C235.221333 351.210667 128 458.922667 128 591.594667 128 722.197333 231.829333 828.565333 361.301333 831.914667L367.573333 832h274.24z m-305.28-830.442667c12.053333 0 21.845333-9.770667 21.845333-21.845333v-21.866667c0-12.053333-9.792-21.845333-21.845333-21.845333h-22.122667a21.845333 21.845333 0 0 0-21.866667 21.845333V-20.266667c0 12.074667 9.792 21.845333 21.866667 21.845334h22.122667z m-109.717334 0c12.074667 0 21.845333-9.770667 21.845334-21.845333v-21.866667c0-12.053333-9.770667-21.845333-21.845334-21.845333H204.714667a21.845333 21.845333 0 0 0-21.866667 21.845333V-20.266667c0 12.074667 9.813333 21.845333 21.866667 21.845334h22.122666zM753.450667 832c12.074667 0 21.866667-9.792 21.866666-21.845333V788.266667c0-12.074667-9.792-21.845333-21.866666-21.845334h-22.101334a21.845333 21.845333 0 0 0-21.866666 21.845334V810.154667c0 12.053333 9.792 21.845333 21.866666 21.845333h22.101334z m109.717333 0c12.074667 0 21.866667-9.792 21.866667-21.845333V788.266667c0-12.074667-9.792-21.845333-21.866667-21.845334h-22.122667A21.845333 21.845333 0 0 0 819.2 788.266667V810.154667C819.2 822.186667 828.992 832 841.045333 832h22.122667z"  horiz-adv-x="1024" />

    
    <glyph glyph-name="yonghushuxing" unicode="&#58980;" d="M311.534507 478.250667a136.789333 136.789333 0 0 0 118.464 205.184v-0.021334a136.789333 136.789333 0 1 0 0-273.557333 136.789333 136.789333 0 0 0-118.464 68.394667m281.344-146.474667a362.197333 362.197333 0 0 1-85.76 30.250667 200.106667 200.106667 0 0 1 121.728 206.293333C618.030507 668.8 529.753173 747.306667 428.654507 746.666667a200.042667 200.042667 0 0 1-75.733334-384.64C194.777173 328.213333 74.478507 192.405333 64.174507 26.730667A130.368 130.368 0 0 1 64.00384 18.986667v-5.973334c0-2.432 0.021333-4.906667 0.064-7.338666a21.077333 21.077333 0 0 1 20.864-20.821334l21.162667-0.213333h0.426666a21.056 21.056 0 0 1 20.821334 21.312c-0.106667 10.517333-0.042667 17.386667 0.213333 20.608 11.733333 156.778667 142.656 280.362667 302.442667 280.362667 54.314667 0 105.130667-14.442667 149.184-39.488a14.613333 14.613333 0 0 1 21.802666 12.8v38.186666a14.890667 14.890667 0 0 1-8.106666 13.354667M660.569173 322.346667h277.333334a21.333333 21.333333 0 0 0 21.333333-21.333334v-21.333333a21.333333 21.333333 0 0 0-21.333333-21.333333h-277.333334a21.333333 21.333333 0 0 0-21.333333 21.333333v21.333333a21.333333 21.333333 0 0 0 21.333333 21.333334M660.569173 187.84h277.333334a21.333333 21.333333 0 0 0 21.333333-21.333333v-21.333334a21.333333 21.333333 0 0 0-21.333333-21.333333h-277.333334a21.333333 21.333333 0 0 0-21.333333 21.333333v21.333334a21.333333 21.333333 0 0 0 21.333333 21.333333M660.569173 53.333333h277.333334a21.333333 21.333333 0 0 0 21.333333-21.333333v-21.333333a21.333333 21.333333 0 0 0-21.333333-21.333334h-277.333334a21.333333 21.333333 0 0 0-21.333333 21.333334v21.333333a21.333333 21.333333 0 0 0 21.333333 21.333333"  horiz-adv-x="1024" />

    
    <glyph glyph-name="xunishuxing" unicode="&#58981;" d="M916.010667 86.442667a21.290667 21.290667 0 0 0 21.12-18.496l0.170666-2.773334v-85.184a21.290667 21.290667 0 0 0-18.496-21.12l-2.794666-0.170666h-85.162667a21.290667 21.290667 0 0 0-21.12 18.496l-0.170667 2.794666v21.290667c0 10.922667 8.213333 19.925333 18.794667 21.162667l2.496 0.128h42.581333v42.581333c0 10.922667 8.213333 19.925333 18.794667 21.162667l2.496 0.128h21.290667z m-787.754667 0c11.733333 0 21.290667-9.536 21.290667-21.290667v-42.581333h42.581333c11.776 0 21.290667-9.514667 21.290667-21.290667v-21.290667a21.290667 21.290667 0 0 0-21.290667-21.290666H106.965333a21.290667 21.290667 0 0 0-21.290666 21.290666v85.162667a21.290667 21.290667 0 0 0 21.290666 21.290667h21.290667z m574.848-63.872c11.733333 0 21.290667-9.536 21.290667-21.290667v-21.290667a21.290667 21.290667 0 0 0-21.290667-21.290666H575.36a21.290667 21.290667 0 0 0-21.290667 21.290666v21.290667c0 11.754667 9.536 21.290667 21.290667 21.290667h127.744z m-255.488 0c11.733333 0 21.290667-9.536 21.290667-21.290667v-21.290667a21.290667 21.290667 0 0 0-21.290667-21.290666h-127.744a21.290667 21.290667 0 0 0-21.290667 21.290666v21.290667c0 11.754667 9.514667 21.290667 21.290667 21.290667h127.744z m468.394667 319.36a21.290667 21.290667 0 0 0 21.290666-21.290667v-127.744a21.290667 21.290667 0 0 0-21.290666-21.290667h-21.290667a21.290667 21.290667 0 0 0-21.290667 21.290667V320.64c0 11.754667 9.536 21.290667 21.290667 21.290667h21.290667z m-787.754667 0c10.901333 0 19.904-8.213333 21.12-18.794667l0.170667-2.496v-127.744a21.290667 21.290667 0 0 0-18.816-21.141333l-2.474667-0.149334h-21.290667a21.290667 21.290667 0 0 0-21.12 18.496l-0.170666 2.794667V320.64a21.290667 21.290667 0 0 0 18.474666 21.12l2.816 0.170667h21.290667z m549.376-83.584c14.144 0 25.6-9.557333 25.6-21.333334v-21.333333c0-11.776-11.456-21.333333-25.6-21.333333h-332.8c-14.122667 0-25.6 9.557333-25.6 21.333333v21.333333c0 11.776 11.477333 21.333333 25.6 21.333334h332.8z m0 149.333333c14.144 0 25.6-9.557333 25.6-21.333333v-21.333334c0-11.776-11.456-21.333333-25.6-21.333333h-332.8c-14.122667 0-25.6 9.557333-25.6 21.333333v21.333334c0 11.776 11.477333 21.333333 25.6 21.333333h332.8z m238.378667 189.738667a21.290667 21.290667 0 0 0 21.290666-21.290667v-127.744a21.290667 21.290667 0 0 0-21.290666-21.290667h-21.290667a21.290667 21.290667 0 0 0-21.290667 21.290667v127.744c0 11.776 9.536 21.290667 21.290667 21.290667h21.290667z m-787.754667 0c10.901333 0 19.904-8.213333 21.12-18.794667l0.170667-2.496v-127.744a21.290667 21.290667 0 0 0-18.816-21.141333l-2.474667-0.149334h-21.290667a21.290667 21.290667 0 0 0-21.12 18.496l-0.170666 2.794667v127.744a21.290667 21.290667 0 0 0 18.474666 21.12l2.816 0.170667h21.290667z m549.376-40.405334c14.144 0 25.6-9.557333 25.6-21.333333v-21.333333c0-11.776-11.456-21.333333-25.6-21.333334h-332.8c-14.122667 0-25.6 9.557333-25.6 21.333334v21.333333c0 11.776 11.477333 21.333333 25.6 21.333333h332.8zM916.010667 810.325333a21.290667 21.290667 0 0 0 21.12-18.474666l0.170666-2.816v-85.162667a21.290667 21.290667 0 0 0-18.496-21.098667l-2.794666-0.192h-21.290667a21.290667 21.290667 0 0 0-21.162667 18.816l-0.128 2.474667V746.453333h-42.581333a21.290667 21.290667 0 0 0-21.162667 18.816l-0.128 2.474667v21.290667a21.290667 21.290667 0 0 0 18.496 21.12l2.773334 0.170666h85.184z m-723.882667 0a21.290667 21.290667 0 0 0 21.290667-21.290666v-21.290667a21.290667 21.290667 0 0 0-21.290667-21.290667H149.546667v-42.581333a21.269333 21.269333 0 0 0-21.290667-21.290667h-21.290667a21.290667 21.290667 0 0 0-21.290666 21.290667V789.034667a21.290667 21.290667 0 0 0 21.290666 21.290666h85.162667z m510.976 0a21.290667 21.290667 0 0 0 21.290667-21.290666v-21.290667a21.290667 21.290667 0 0 0-21.290667-21.290667H575.36a21.290667 21.290667 0 0 0-21.290667 21.290667v21.290667a21.290667 21.290667 0 0 0 21.290667 21.290666h127.744z m-255.488 0a21.290667 21.290667 0 0 0 21.290667-21.290666v-21.290667a21.290667 21.290667 0 0 0-21.290667-21.290667h-127.744a21.290667 21.290667 0 0 0-21.290667 21.290667v21.290667a21.290667 21.290667 0 0 0 21.290667 21.290666h127.744z"  horiz-adv-x="1024" />

    
    <glyph glyph-name="zhuanhua" unicode="&#58954;" d="M521.92 800c76.714667 0 138.922667-62.08 138.922667-138.666667l-0.085334 3.413334c134.357333-54.677333 229.034667-186.389333 229.034667-340.181334 0-23.125333-2.133333-45.76-6.229333-67.712A138.261333 138.261333 0 0 0 938.666667 146.282667c0-76.586667-62.186667-138.666667-138.922667-138.666667a138.496 138.496 0 0 0-66.026667 16.64A366.634667 366.634667 0 0 0 521.92-42.666667a366.656 366.656 0 0 0-220.757333 73.450667 138.581333 138.581333 0 0 0-76.906667-23.168c-76.736 0-138.922667 62.08-138.922667 138.666667a138.602667 138.602667 0 0 0 73.002667 122.090666c-2.837333 18.304-4.288 37.077333-4.288 56.192 0 153.792 94.677333 285.482667 229.013333 340.181334 1.792 75.008 63.274667 135.253333 138.88 135.253333z m122.368-204.309333l-1.642667-2.986667a138.901333 138.901333 0 0 0-120.725333-70.037333 138.922667 138.922667 0 0 0-122.368 73.002666c-103.466667-46.570667-175.466667-150.442667-175.466667-271.104 0-13.44 0.896-26.666667 2.624-39.637333 75.584-1.322667 136.448-62.890667 136.448-138.645333 0-22.698667-5.461333-44.16-15.146666-63.061334a296.832 296.832 0 0 1 173.909333-55.936c58.709333 0 113.429333 16.96 159.573333 46.208a138.005333 138.005333 0 0 0-20.650666 72.789334c0 76.586667 62.186667 138.666667 138.901333 138.666666 5.845333 0 11.584-0.362667 17.237333-1.066666 1.834667 13.290667 2.773333 26.88 2.773334 40.682666 0 120.661333-72 224.533333-175.466667 271.125334z"  horiz-adv-x="1024" />

    
    <glyph glyph-name="fenxiline" unicode="&#58971;" d="M491.349333 30.848c-12.714667 0-25.536 0.682667-38.485333 2.176-149.141333 16.810667-270.336 135.850667-289.877333 284.650667-22.933333 174.549333 91.648 334.805333 261.845333 369.621333l8.384 1.642667-0.298667-370.282667a14.933333 14.933333 0 0 1 14.912-14.912h370.24l-1.514666-8.064c-31.872-155.733333-168.618667-264.832-325.205334-264.832m369.642667 326.250667H486.314667V732.586667a15.018667 15.018667 0 0 1-15.573334 15.061333 385.557333 385.557333 0 0 1-265.6-127.722667c-74.24-82.88-108.309333-189.909333-96-301.376 19.84-179.754667 158.058667-318.293333 337.792-338.56 111.210667-12.522667 217.984 21.205333 300.693334 94.933334a385.706667 385.706667 0 0 1 128.405333 266.602666 15.018667 15.018667 0 0 1-15.04 15.573334M852.245333 480.192l-6.4-0.938667H600.426667V731.306667l14.506666-3.242667c118.101333-28.010667 210.709333-122.773333 235.946667-241.429333l1.365333-6.442667zM547.114667 774.058667v-333.141334a14.933333 14.933333 0 0 1 14.976-14.912l333.098666 1.984a14.976 14.976 0 0 1 14.890667 15.829334C896.234667 629.632 746.304 778.794667 562.922667 789.290667a15.146667 15.146667 0 0 1-15.808-15.232z"  horiz-adv-x="1024" />

    
    <glyph glyph-name="tubiao" unicode="&#58967;" d="M821.333333 533.333333a21.333333 21.333333 0 0 0 21.333334-21.333333l-0.021334-490.666667H917.333333a21.333333 21.333333 0 0 0 21.333334-21.333333v-21.333333a21.333333 21.333333 0 0 0-21.333334-21.333334H106.666667a21.333333 21.333333 0 0 0-21.333334 21.333334v21.333333a21.333333 21.333333 0 0 0 21.333334 21.333333h74.645333L181.333333 373.333333a21.333333 21.333333 0 0 0 21.333334 21.333334h21.333333a21.333333 21.333333 0 0 0 21.333333-21.333334L245.312 21.333333H330.666667V288a21.333333 21.333333 0 0 0 21.333333 21.333333h21.333333a21.333333 21.333333 0 0 0 21.333334-21.333333L394.645333 21.333333H480V469.333333a21.333333 21.333333 0 0 0 21.333333 21.333334h21.333334a21.333333 21.333333 0 0 0 21.333333-21.333334v-448h85.333333V416a21.333333 21.333333 0 0 0 21.333334 21.333333h21.333333a21.333333 21.333333 0 0 0 21.333333-21.333333V21.333333h85.312l0.021334 490.666667a21.333333 21.333333 0 0 0 21.333333 21.333333h21.333333z m17.706667 212.565334l11.669333-17.856a21.333333 21.333333 0 0 0-6.229333-29.525334l-167.317333-109.162666a21.333333 21.333333 0 0 0-16.64-2.88l-138.88 33.493333-142.186667-110.165333a21.333333 21.333333 0 0 0-21.653333-2.666667l-167.594667 73.642667a21.333333 21.333333 0 0 0-10.965333 28.117333l8.597333 19.541333a21.333333 21.333333 0 0 0 28.096 10.944l144.362667-63.424 138.368 107.157334a21.333333 21.333333 0 0 0 18.048 3.861333l140.885333-33.941333 151.914667 99.072a21.333333 21.333333 0 0 0 29.525333-6.186667z"  horiz-adv-x="1024" />

    
    <glyph glyph-name="leidatu" unicode="&#58968;" d="M523.2 825.536l365.589333-211.072c6.912-3.989333 11.2-11.392 11.2-19.413333v-422.122667c0-8-4.266667-15.402667-11.2-19.413333l-365.589333-211.050667a22.4 22.4 0 0 0-22.4 0L135.210667 153.536a22.4 22.4 0 0 0-11.2 19.413333V595.050667c0 8 4.266667 15.402667 11.2 19.413333l365.589333 211.050667a22.4 22.4 0 0 0 22.4 0zM512 758.101333L188.010667 571.072v-374.122667L512 9.92l323.968 187.029333V571.072L512 758.101333z m9.621333-124.501333l230.72-95.829333a21.333333 21.333333 0 0 0 13.013334-22.293334l-30.677334-251.456a21.333333 21.333333 0 0 0-7.018666-13.376l-204.309334-181.226666a21.333333 21.333333 0 0 0-26.090666-1.706667l-237.397334 160.277333a21.333333 21.333333 0 0 0-9.173333 20.842667l38.058667 252.906667a21.333333 21.333333 0 0 0 10.581333 15.36l203.605333 115.349333a21.333333 21.333333 0 0 0 18.688 1.152z m-5.312-67.093333l-167.381333-94.826667-30.933333-205.738667 187.626666-126.677333 167.488 148.565333 24.768 203.264-181.568 75.413334z"  horiz-adv-x="1024" />

    
    <glyph glyph-name="zhuzhuangtu" unicode="&#58969;" d="M917.333333 21.333333a21.333333 21.333333 0 0 0 21.333334-21.333333v-21.333333a21.333333 21.333333 0 0 0-21.333334-21.333334H106.666667a21.333333 21.333333 0 0 0-21.333334 21.333334v21.333333a21.333333 21.333333 0 0 0 21.333334 21.333333h810.666666zM304.64 500.053333a21.333333 21.333333 0 0 0 21.333333-21.333333v-371.072a21.333333 21.333333 0 0 0-21.333333-21.333333H107.008a21.333333 21.333333 0 0 0-21.333333 21.333333V478.72a21.333333 21.333333 0 0 0 21.333333 21.333333h197.632zM608.96 810.261333a21.333333 21.333333 0 0 0 21.333333-21.333333v-681.301333a21.333333 21.333333 0 0 0-21.333333-21.333334H411.306667a21.333333 21.333333 0 0 0-21.333334 21.333334V788.949333a21.333333 21.333333 0 0 0 21.333334 21.333334h197.653333z m304.298667-206.805333a21.333333 21.333333 0 0 0 21.333333-21.333333v-474.496a21.333333 21.333333 0 0 0-21.333333-21.333334h-197.632a21.333333 21.333333 0 0 0-21.333334 21.333334V582.144a21.333333 21.333333 0 0 0 21.333334 21.333333h197.632zM261.973333 436.053333H149.653333v-285.717333h112.32V436.053333zM566.272 746.304H453.973333v-595.968h112.298667V746.304z m304.32-206.826667h-112.32v-389.141333h112.32V539.477333z"  horiz-adv-x="1024" />

    
    <glyph glyph-name="zhexiantu" unicode="&#58970;" d="M238.208 376.448l132.608-85.248a88.256 88.256 0 0 1-32.32-50.261333L205.888 326.186667a88.256 88.256 0 0 1 32.32 50.261333z m428.8 92.266667l-166.698667-202.453334a88.490667 88.490667 0 0 1-46.122666 37.994667l166.741333 202.432a88.490667 88.490667 0 0 1 46.08-37.973333z m115.264 61.376l36.394667-24.576a88.256 88.256 0 0 1-32.725334-50.005334l-37.12 25.066667a88.32 88.32 0 0 1 33.450667 49.493333zM152.213333 484.416a88.213333 88.213333 0 1 1 0-176.426667 88.213333 88.213333 0 0 1 0 176.426667z m0-59.733333a28.48 28.48 0 1 0 0-56.96 28.48 28.48 0 0 0 0 56.96zM424.490667 309.376a88.213333 88.213333 0 1 1 0-176.426667 88.213333 88.213333 0 0 1 0 176.426667z m0-59.733333a28.48 28.48 0 1 0 0-56.96 28.48 28.48 0 0 0 0 56.96zM696.746667 640a88.213333 88.213333 0 1 1 0-176.426667 88.213333 88.213333 0 0 1 0 176.426667z m0-59.733333a28.48 28.48 0 1 0 0-56.96 28.48 28.48 0 0 0 0 56.96zM871.786667 523.306667a88.213333 88.213333 0 1 1 0-176.426667 88.213333 88.213333 0 0 1 0 176.426667z m0-59.733334a28.48 28.48 0 1 0 0-56.96 28.48 28.48 0 0 0 0 56.96zM85.333333 21.333333h853.333334v-64H85.333333z"  horiz-adv-x="1024" />

    
    <glyph glyph-name="tianjiachangjingline" unicode="&#58964;" d="M896 810.666667a21.333333 21.333333 0 0 0 21.333333-21.333334v-810.666666a21.333333 21.333333 0 0 0-21.333333-21.333334H149.333333a21.333333 21.333333 0 0 0-21.333333 21.333334V789.333333a21.333333 21.333333 0 0 0 21.333333 21.333334h746.666667z m-42.666667-64H192v-725.333334h661.333333V746.666667zM304 181.333333h309.333333a16 16 0 0 0 16-16v-32a16 16 0 0 0-16-16h-309.333333a16 16 0 0 0-16 16v32a16 16 0 0 0 16 16z m394.666667 128a16 16 0 0 0 16-16v-32a16 16 0 0 0-16-16h-394.666667a16 16 0 0 0-16 16v32a16 16 0 0 0 16 16h394.666667zM531.989333 682.666667c6.634667 0 12.010667-5.376 12.010667-12.010667V586.666667h84.010667c6.613333 0 11.989333-5.376 11.989333-12.010667v-39.978667c0-6.634667-5.376-12.010667-12.010667-12.010666H544v-84.010667c0-6.613333-5.376-11.989333-12.010667-11.989333h-40a11.989333 11.989333 0 0 0-11.989333 12.010666V522.666667l-84.010667-0.021334a11.989333 11.989333 0 0 0-11.989333 12.010667v40c0 6.613333 5.376 11.989333 12.010667 11.989333l83.989333 0.021334v83.989333c0 6.613333 5.376 11.989333 12.010667 11.989333h40z"  horiz-adv-x="1024" />

    
    <glyph glyph-name="xiazaichangjingline" unicode="&#58965;" d="M896 810.666667a21.333333 21.333333 0 0 0 21.333333-21.333334v-810.666666a21.333333 21.333333 0 0 0-21.333333-21.333334H149.333333a21.333333 21.333333 0 0 0-21.333333 21.333334V789.333333a21.333333 21.333333 0 0 0 21.333333 21.333334h746.666667z m-42.666667-64H192v-725.333334h661.333333V746.666667zM323.2 271.957333c6.656 0 12.032-5.397333 12.032-12.032v-45.717333h353.536v45.717333c0 6.634667 5.376 12.032 12.032 12.032h28.501333c6.656 0 12.032-5.397333 12.032-12.032v-98.56a12.032 12.032 0 0 0-12.032-12.032H295.552a12.032 12.032 0 0 0-12.032 12.032v98.56c0 6.634667 5.397333 12.032 12.032 12.032h27.648zM531.968 618.666667c6.634667 0 12.032-5.397333 12.032-12.032l-0.021333-220.117334 37.525333 37.504a12.032 12.032 0 0 0 15.36 1.386667l1.664-1.386667 28.224-28.245333c4.181333-4.181333 4.650667-10.666667 1.408-15.36l-1.408-1.664-72.576-72.64a12.032 12.032 0 0 0-2.090667-2.773333l-28.224-28.245334a11.989333 11.989333 0 0 0-7.488-3.477333h-2.816a11.989333 11.989333 0 0 0-5.802666 2.090667l-1.685334 1.386666L477.866667 303.36a12.032 12.032 0 0 0-2.069334 2.773333l-72.597333 72.64a12.032 12.032 0 0 0 0 17.024l28.224 28.245334c4.693333 4.693333 12.330667 4.693333 17.024 0l31.552-31.552 0.021333 214.165333c0 6.634667 5.397333 12.032 12.032 12.032h39.936z"  horiz-adv-x="1024" />

    
    <glyph glyph-name="chuangjianchangjingline" unicode="&#58966;" d="M662.826667 660.928a43.242667 43.242667 0 0 0 30.570666-12.736l96.106667-96.576a43.242667 43.242667 0 0 0-0.085333-61.056L413.44 114.538667h-113.962667a43.242667 43.242667 0 0 0-43.242666 43.264v114.517333l375.978666 376.021333c8.149333 8.106667 19.157333 12.629333 30.613334 12.586667z m-117.525334-179.093333L319.957333 256.704v-77.909333h77.482667l225.578667 225.322666-77.717334 77.717334z m102.421334 102.293333l-57.728-57.685333 77.696-77.696 57.6 57.514666-77.568 77.866667zM896 810.666667a21.333333 21.333333 0 0 0 21.333333-21.333334v-810.666666a21.333333 21.333333 0 0 0-21.333333-21.333334H149.333333a21.333333 21.333333 0 0 0-21.333333 21.333334V789.333333a21.333333 21.333333 0 0 0 21.333333 21.333334h746.666667z m-42.666667-64H192v-725.333334h661.333333V746.666667z"  horiz-adv-x="1024" />

    
    <glyph glyph-name="meijieline" unicode="&#58951;" d="M843.861333 810.666667a95.125333 95.125333 0 0 0 94.72-90.368l0.085334-4.437334v-663.722666a95.125333 95.125333 0 0 0-90.368-94.72l-4.437334-0.085334H180.138667a95.125333 95.125333 0 0 0-94.72 90.368L85.333333 52.138667V715.861333a95.125333 95.125333 0 0 0 90.368 94.72L180.138667 810.666667h663.722666z m0-64H180.138667a31.146667 31.146667 0 0 1-30.656-27.882667L149.333333 715.861333v-663.722666a31.146667 31.146667 0 0 1 27.882667-30.656l2.922667-0.149334h663.722666a31.146667 31.146667 0 0 1 30.656 27.882667l0.149334 2.922667V715.861333a31.146667 31.146667 0 0 1-27.882667 30.656L843.861333 746.666667z m-458.602666-156.736a42.666667 42.666667 0 0 0 20.714666-5.354667l296.149334-164.522667a42.666667 42.666667 0 0 0 0-74.602666L405.973333 180.906667a42.666667 42.666667 0 0 0-63.36 37.290666V547.264a42.666667 42.666667 0 0 0 42.666667 42.666667z m21.333333-78.912V254.506667l230.890667 128.256-230.890667 128.277333z"  horiz-adv-x="1024" />

    
    <glyph glyph-name="fenxiline1" unicode="&#58963;" d="M478.122667 770.026667a21.333333 21.333333 0 0 0 21.568-18.986667l0.128-2.346667v-356.864h363.349333a21.333333 21.333333 0 0 0 20.778667-16.426666l0.426666-2.410667 0.128-2.496c0-220.693333-178.901333-399.573333-399.573333-399.573333C264.234667-29.098667 85.333333 149.781333 85.333333 370.474667 85.333333 586.026667 256.128 762.133333 470.357333 769.813333l7.765334 0.213334z m-20.970667-43.669334l-6.037333-0.512C269.653333 708.8 128 555.989333 128 370.496c0-197.12 159.786667-356.906667 356.906667-356.906667 185.6 0 338.090667 141.610667 355.306666 322.666667l0.597334 6.997333 0.384 5.909334H478.485333a21.333333 21.333333 0 0 0-20.757333 16.426666l-0.426667 2.410667-0.149333 2.496V726.357333z m117.226667 105.173334c196.096 0 356.373333-155.306667 363.562666-350.357334l0.192-6.741333 0.064-6.528a20.202667 20.202667 0 0 0-17.984-20.266667l-2.197333-0.106666H574.378667a20.181333 20.181333 0 0 0-20.053334 17.834666l-0.128 2.346667V811.349333c0 11.136 9.045333 20.181333 20.181334 20.181334z m22.464-43.456v-297.877334H894.72l-0.213333 3.114667c-12.416 156.842667-137.066667 281.237333-292.757334 294.4l-4.906666 0.362667z"  horiz-adv-x="1024" />

    
    <glyph glyph-name="pinpailine" unicode="&#58962;" d="M768.341333 810.666667a85.333333 85.333333 0 0 0 76.522667-47.573334l127.616-258.496a85.333333 85.333333 0 0 0-13.269333-95.04l-383.914667-424.106666a85.333333 85.333333 0 0 0-126.485333-0.021334l-384 423.466667a85.333333 85.333333 0 0 0-13.312 95.018667L179.178667 763.050667A85.333333 85.333333 0 0 0 255.722667 810.666667h512.618666z m0-64h-512.64a21.333333 21.333333 0 0 1-17.792-9.578667l-1.322666-2.325333-127.68-259.136a21.333333 21.333333 0 0 1 1.536-21.482667l1.792-2.261333 384-423.466667 1.493333-1.493333a21.333333 21.333333 0 0 1 28.202667-0.362667l1.92 1.856 383.914666 424.106667a21.333333 21.333333 0 0 1 4.416 21.077333l-1.088 2.666667-127.616 258.517333a21.333333 21.333333 0 0 1-16.469333 11.733333L768.341333 746.666667zM361.173333 420.778667L512 272.64l150.826667 148.138667a21.333333 21.333333 0 0 0 29.866666 0l24.832-24.384a21.333333 21.333333 0 0 0 0.256-30.165334l-0.256-0.277333-165.717333-162.773333-0.042667-0.042667L526.933333 178.773333a21.248 21.248 0 0 0-11.221333-5.802666l-2.496-0.277334h-2.474667a21.248 21.248 0 0 0-13.717333 6.08l-190.570667 187.178667a21.333333 21.333333 0 0 0-0.256 30.186667l0.256 0.256 24.810667 24.384a21.333333 21.333333 0 0 0 29.909333 0z"  horiz-adv-x="1024" />

    
    <glyph glyph-name="xingxingline" unicode="&#58961;" d="M511.573333 788.821333c8.213333 0 15.701333-4.650667 19.328-11.989333l120.021334-243.157333 268.330666-39.018667a21.546667 21.546667 0 0 0 11.946667-36.757333l-194.154667-189.269334 45.824-267.264a21.546667 21.546667 0 0 0-28.8-23.829333l-3.285333 1.557333-239.189333 125.738667-240.042667-126.186667a21.546667 21.546667 0 0 0-31.253333 22.72l45.824 267.264-194.133334 189.269334a21.546667 21.546667 0 0 0 11.904 36.757333l268.352 39.018667 120.021334 243.157333a21.546667 21.546667 0 0 0 19.328 11.989333z m103.936-303.893333L511.573333 695.466667l-103.914666-210.56-232.362667-33.749334 168.149333-163.904-39.701333-231.402666 207.850667 109.226666 207.829333-109.248-39.68 231.424 168.128 163.904-232.362667 33.770667z"  horiz-adv-x="1024" />

    
    <glyph glyph-name="xinrenlibaoLINE" unicode="&#58960;" d="M874.666667 661.333333a21.333333 21.333333 0 0 0 21.333333-21.333333v-149.333333a21.333333 21.333333 0 0 0-21.333333-21.333334h-42.666667v-490.666666a21.333333 21.333333 0 0 0-21.333333-21.333334H192a21.333333 21.333333 0 0 0-21.333333 21.333334V469.333333H128a21.333333 21.333333 0 0 0-21.333333 21.333334v149.333333a21.333333 21.333333 0 0 0 21.333333 21.333333h746.666667z m-96-192h-554.666667v-458.666666H469.333333v384a10.666667 10.666667 0 0 0 10.666667 10.666666h42.666667a10.666667 10.666667 0 0 0 10.666666-10.666666v-384h245.333334V469.333333z m64 138.666667h-682.666667v-85.333333h682.666667v85.333333zM367.893333 805.824l138.773334-138.773333 138.773333 138.773333a10.666667 10.666667 0 0 0 13.610667 1.237333l1.493333-1.237333 22.613333-22.613333a10.666667 10.666667 0 0 0 1.237334-13.632l-1.237334-1.472L576.341333 661.333333H874.666667a21.333333 21.333333 0 0 0 21.333333-21.333333v-149.333333a21.333333 21.333333 0 0 0-21.333333-21.333334h-42.666667v-490.666666a21.333333 21.333333 0 0 0-21.333333-21.333334H192a21.333333 21.333333 0 0 0-21.333333 21.333334V469.333333H128a21.333333 21.333333 0 0 0-21.333333 21.333334v149.333333a21.333333 21.333333 0 0 0 21.333333 21.333333h308.949333l-106.773333 106.773334a10.666667 10.666667 0 0 0 0 15.082666l22.613333 22.634667a10.666667 10.666667 0 0 0 15.104 0zM778.666667 469.333333h-554.666667v-458.666666H469.333333v384a10.666667 10.666667 0 0 0 10.666667 10.666666h42.666667a10.666667 10.666667 0 0 0 10.666666-10.666666v-384h245.333334V469.333333z m64 138.666667h-682.666667v-85.333333h682.666667v85.333333z"  horiz-adv-x="1024" />

    
    <glyph glyph-name="xinline" unicode="&#58958;" d="M707.968 746.666667C846.933333 746.666667 960 639.04 960 506.730667c0-62.016-25.002667-109.482667-51.52-148.565334l-7.253333-10.453333-7.210667-10.069333-7.082667-9.706667c-16.213333-22.144-36.650667-45.226667-59.413333-68.309333l-11.562667-11.52-11.925333-11.52-12.181333-11.434667-12.437334-11.370667-12.608-11.264-12.736-11.157333-12.821333-10.965333-12.864-10.794667-19.2-15.786667-18.986667-15.253333-12.437333-9.813333-12.202667-9.493334-17.749333-13.589333-11.392-8.597333-21.504-15.957334-23.893333-17.344-29.461334-20.842666-17.194666-11.797334c-9.685333-6.528-21.034667-9.792-32.384-9.792a58.24 58.24 0 0 0-28.650667 7.509334l-4.288 2.666666-26.24 18.133334-19.84 14.122666-23.893333 17.344-21.504 15.957334-17.216 13.034666-11.925334 9.173334-18.389333 14.336-12.544 9.962666-12.693333 10.24-19.2 15.786667-12.842667 10.794667-12.821333 10.965333-12.757334 11.157333-12.586666 11.264-12.437334 11.370667-12.202666 11.456-11.904 11.498667-11.584 11.52c-20.864 21.162667-39.765333 42.325333-55.253334 62.762666l-11.242666 15.253334-7.210667 10.069333-7.253333 10.453333C89.002667 397.248 64 444.714667 64 506.730667 64 639.04 177.066667 746.666667 316.032 746.666667c66.133333 0 128.213333-54.336 174.314667-104.832l9.002666-10.026667 8.533334-9.813333 4.117333-4.821334 4.117333 4.8 8.533334 9.813334 9.024 10.026666 9.429333 10.154667C588.074667 699.306667 646.293333 746.666667 707.968 746.666667z m0-55.36c-40.32 0-89.536-36.416-147.2-102.933334l-5.781333-6.762666L512 531.008l-42.986667 50.624c-60.117333 70.784-111.296 109.674667-152.96 109.674667-108.458667 0-195.968-83.306667-195.968-184.576 0-46.165333 13.802667-78.037333 52.629334-132.778667l9.813333-13.589333c37.781333-51.626667 106.24-115.477333 192.512-183.488a2542.869333 2542.869333 0 0 1 93.056-69.888l15.893333-11.306667 24.256-16.810667 2.944-2.005333c0.149333-0.085333 0.426667-0.170667 0.789334-0.170667 0.362667 0 0.64 0.064 0.810666 0.192l24.064 16.597334 19.050667 13.504a2540.821333 2540.821333 0 0 1 93.034667 69.888c9.962667 7.850667 19.669333 15.637333 29.141333 23.36l18.56 15.36c63.765333 53.376 114.282667 103.04 144.810667 144.768l5.034666 6.912 9.322667 13.141333c35.370667 50.837333 48.106667 82.005333 48.106667 126.314667 0 101.269333-87.509333 184.576-195.946667 184.576z"  horiz-adv-x="1024" />

    
    <glyph glyph-name="xin" unicode="&#58959;" d="M512 617.173333C464.853333 672.704 393.173333 746.666667 316.032 746.666667 177.066667 746.666667 64 639.04 64 506.730667c0-78.933333 40.490667-134.293333 73.045333-178.773334C231.68 198.698667 469.546667 37.888 479.616 31.104c9.685333-6.528 21.056-9.792 32.362667-9.792 11.349333 0 22.698667 3.264 32.384 9.813333 10.090667 6.762667 247.978667 167.573333 342.570666 296.789334C919.466667 372.437333 960 427.797333 960 506.730667 960 639.04 846.933333 746.666667 707.968 746.666667 630.869333 746.666667 559.146667 672.704 512 617.173333z"  horiz-adv-x="1024" />

    
    <glyph glyph-name="gengxin" unicode="&#58957;" d="M187.882667 607.061333c1.216-0.810667 2.346667-1.706667 3.370666-2.730666l4.138667-3.968 16.576-16.512c5.909333-8.085333 6.250667-18.944 0.874667-27.392l-5.909334-9.493334-2.752-4.629333-1.024-1.770667a351.722667 351.722667 0 0 1-44.010666-170.88c0-195.029333 158.101333-353.130667 353.130666-353.130666 49.941333 0 98.24 10.389333 142.421334 29.866666 31.722667 13.994667 73.237333-47.082667 32.853333-65.322666a425.237333 425.237333 0 0 0-175.274667-37.610667c-235.370667 0-426.176 190.805333-426.176 426.176 0 74.965333 19.456 146.944 55.274667 210.069333l6.506667 11.029334 6.229333 9.6a24.362667 24.362667 0 0 0 33.770667 6.698666z m324.394666 188.8c235.370667 0 426.176-190.826667 426.176-426.197333a424.725333 424.725333 0 0 0-47.189333-195.136l-3.733333-6.912a24.362667 24.362667 0 0 0-38.549334-5.418667l-18.069333 18.133334a24.362667 24.362667 0 0 0-4.330667 28.458666l3.989334 7.872 3.072 6.421334a352.021333 352.021333 0 0 1 31.744 146.581333c0 195.029333-158.08 353.130667-353.109334 353.130667-63.232 0-123.84-16.64-176.896-47.424l-53.141333 53.12a424.405333 424.405333 0 0 0 230.037333 67.370666zM335.274667 815.509333l60.736-176.405333a24.362667 24.362667 0 0 0-33.706667-29.802667l-118.528 57.813334a24.362667 24.362667 0 0 0-11.2 32.576l57.792 118.549333a24.362667 24.362667 0 0 0 44.906667-2.730667z m290.56-715.434666l78.826666-169.045334a24.362667 24.362667 0 0 1 44.949334 1.941334l45.12 123.946666a24.362667 24.362667 0 0 1-14.570667 31.210667l-123.946667 45.12a24.362667 24.362667 0 0 1-30.378666-33.173333z"  horiz-adv-x="1024" />

    
    <glyph glyph-name="zhuanhualine" unicode="&#58956;" d="M521.92 826.666667c91.434667 0 165.589333-74.026667 165.589333-165.333334 0-4.864-0.213333-9.685333-0.64-14.421333a361.749333 361.749333 0 0 0 195.904-357.546667 165.248 165.248 0 0 0 82.56-143.082666c0-91.306667-74.133333-165.333333-165.589333-165.333334a164.992 164.992 0 0 0-95.893333 30.549334 361.088 361.088 0 0 0-181.930667-48.832c-69.376 0-135.829333 19.52-193.024 55.509333a164.906667 164.906667 0 0 0-104.64-37.226667c-91.456 0-165.589333 74.026667-165.589333 165.333334a165.376 165.376 0 0 0 101.653333 152.576 361.856 361.856 0 0 0 196.629333 348.096 164.821333 164.821333 0 0 0-0.618666 14.378666c0 91.306667 74.154667 165.333333 165.589333 165.333334z m148.650667-238.293334l-0.213334-0.384a165.610667 165.610667 0 0 0-148.437333-91.989333 165.610667 165.610667 0 0 0-148.629333 92.373333 302.442667 302.442667 0 0 1-154.24-276.842666l5.205333 0.085333c91.434667 0 165.568-74.026667 165.568-165.333333a164.373333 164.373333 0 0 0-21.973333-82.368 302.058667 302.058667 0 0 1 154.069333-41.962667c49.237333 0 96.704 11.733333 139.264 33.749333a164.522667 164.522667 0 0 0-27.008 90.581334c0 91.306667 74.133333 165.333333 165.568 165.333333 8.490667 0 16.832-0.64 24.96-1.856a302.506667 302.506667 0 0 1-154.133333 278.634667zM224.256 258.304a112.128 112.128 0 0 1-112.256-112 112.128 112.128 0 0 1 112.256-112 112.128 112.128 0 0 1 112.234667 112 112.128 112.128 0 0 1-112.234667 112z m575.488 0a112.128 112.128 0 0 1-112.234667-112 112.128 112.128 0 0 1 112.234667-112 112.128 112.128 0 0 1 112.256 112 112.128 112.128 0 0 1-112.256 112zM521.92 773.333333A112.128 112.128 0 0 1 409.664 661.333333a112.128 112.128 0 0 1 112.256-112A112.128 112.128 0 0 1 634.176 661.333333a112.128 112.128 0 0 1-112.256 112z"  horiz-adv-x="1024" />

    
    <glyph glyph-name="shengyin" unicode="&#58908;" d="M576.298667 780.096c3.2-3.989333 4.949333-8.96 4.949333-14.08V6.186667a22.464 22.464 0 0 0-36.693333-17.429334L221.696 251.989333H86.826667a22.464 22.464 0 0 0-22.485334 22.464V502.037333a22.464 22.464 0 0 0 22.485334 22.464h134.826666L544.746667 783.552a22.464 22.464 0 0 0 31.573333-3.456z m280.256-102.485333c5.610667-6.037333 11.264-12.992 16.938666-20.842667a448.128 448.128 0 0 0 89.450667-269.333333 448.234667 448.234667 0 0 0-74.965333-248.789334 764.48 764.48 0 0 0-31.210667-41.002666 22.464 22.464 0 0 0-29.418667-4.224l-2.666666 2.026666-16.746667 15.701334a22.464 22.464 0 0 0-1.792 30.890666l7.189333 8.64 3.050667 3.84 5.12 6.677334a380.757333 380.757333 0 0 1 74.048 226.24 380.8 380.8 0 0 1-71.36 222.570666 708.48 708.48 0 0 1-17.856 22.357334c-7.68 9.152-6.826667 22.698667 1.898667 30.848l16.554666 15.488a22.464 22.464 0 0 0 31.765334-1.066667z m-107.562667-107.136c8.490667-9.045333 17.258667-23.552 19.690667-27.392a291.093333 291.093333 0 0 0 44.757333-155.52c0-57.450667-16.704-112.362667-47.061333-159.061334-5.333333-8.106667-11.093333-15.914667-17.216-23.445333a22.464 22.464 0 0 0-31.637334-2.922667l-1.066666 0.981334-16.533334 15.616a22.464 22.464 0 0 0-2.133333 30.336c5.994667 7.530667 10.581333 13.802667 13.76 18.837333a223.722667 223.722667 0 0 1 34.474667 119.68 223.658667 223.658667 0 0 1-43.370667 132.778667l-3.989333 5.034666a22.464 22.464 0 0 0 2.048 30.570667l16.512 15.509333a22.464 22.464 0 0 0 31.765333-1.002666z"  horiz-adv-x="1024" />

    
    <glyph glyph-name="shengyinline" unicode="&#58955;" d="M576.298667 780.096c3.2-3.989333 4.949333-8.96 4.949333-14.08V6.186667a22.464 22.464 0 0 0-36.693333-17.429334L221.696 251.989333H86.826667a22.464 22.464 0 0 0-22.485334 22.464V502.037333a22.464 22.464 0 0 0 22.485334 22.464h134.826666L544.746667 783.552a22.464 22.464 0 0 0 31.573333-3.456z m-51.370667-702.72V695.594667L241.450667 468.202667H120.64v-159.914667h121.066667l283.221333-230.890667z m331.626667 600.234667c5.610667-6.037333 11.264-12.992 16.938666-20.842667a448.128 448.128 0 0 0 89.450667-269.333333 448.234667 448.234667 0 0 0-74.965333-248.789334 764.48 764.48 0 0 0-31.210667-41.002666 22.464 22.464 0 0 0-29.418667-4.224l-2.666666 2.026666-16.746667 15.701334a22.464 22.464 0 0 0-1.792 30.890666l7.189333 8.64 3.050667 3.84 5.12 6.677334a380.757333 380.757333 0 0 1 74.048 226.24 380.8 380.8 0 0 1-71.36 222.570666 708.48 708.48 0 0 1-17.856 22.357334c-7.68 9.152-6.826667 22.698667 1.898667 30.848l16.554666 15.488a22.464 22.464 0 0 0 31.765334-1.066667z m-107.562667-107.136c8.490667-9.045333 17.258667-23.552 19.690667-27.392a291.093333 291.093333 0 0 0 44.757333-155.52c0-57.450667-16.704-112.362667-47.061333-159.061334-5.333333-8.106667-11.093333-15.914667-17.216-23.445333a22.464 22.464 0 0 0-31.637334-2.922667l-1.066666 0.981334-16.533334 15.616a22.464 22.464 0 0 0-2.133333 30.336c5.994667 7.530667 10.581333 13.802667 13.76 18.837333a223.722667 223.722667 0 0 1 34.474667 119.68 223.658667 223.658667 0 0 1-43.370667 132.778667l-3.989333 5.034666a22.464 22.464 0 0 0 2.048 30.570667l16.512 15.509333a22.464 22.464 0 0 0 31.765333-1.002666z"  horiz-adv-x="1024" />

    
    <glyph glyph-name="shijian1" unicode="&#58952;" d="M511.018667 810.112c234.773333 0 425.130667-190.357333 425.130666-425.130667s-190.357333-425.130667-425.130666-425.130666S85.888 150.208 85.888 384.981333 276.266667 810.112 511.018667 810.112z m19.434666-193.28h-19.328c-10.666667 0-19.306667-8.661333-19.306666-19.328V343.68l148.736-106.794667a19.328 19.328 0 0 1 26.986666 4.416l11.264 15.722667 1.28 2.048a19.328 19.328 0 0 1-5.696 24.896l-124.586666 89.450667V597.504c0 10.666667-8.661333 19.328-19.349334 19.328z"  horiz-adv-x="1024" />

    
    <glyph glyph-name="shijianline" unicode="&#58953;" d="M511.018667 810.112c234.773333 0 425.130667-190.357333 425.130666-425.130667s-190.357333-425.130667-425.130666-425.130666S85.888 150.208 85.888 384.981333 276.266667 810.112 511.018667 810.112z m0-57.984c-202.752 0-367.146667-164.394667-367.146667-367.146667 0-202.773333 164.394667-367.146667 367.146667-367.146666 202.773333 0 367.146667 164.373333 367.146666 367.146666 0 202.752-164.373333 367.146667-367.146666 367.146667z m19.434666-135.296c10.666667 0 19.328-8.661333 19.328-19.328v-224.064l124.586667-89.450667c7.914667-5.674667 10.368-16.341333 5.738667-24.896l-1.28-2.048-11.285334-15.722666a19.328 19.328 0 0 0-26.986666-4.416l-148.736 106.794666V597.504c0 10.666667 8.64 19.328 19.306666 19.328h19.328z"  horiz-adv-x="1024" />

    
    <glyph glyph-name="download" unicode="&#58950;" d="M501.632 810.453333h21.546667c11.946667 0 21.546667-9.685333 21.546666-21.589333v-534.826667a21.546667 21.546667 0 0 0-21.546666-21.546666h-21.546667a21.546667 21.546667 0 0 0-21.546667 21.546666V788.864a21.546667 21.546667 0 0 0 21.546667 21.546667zM542.890667 197.290667l-15.232-15.232a21.546667 21.546667 0 0 0-30.464 0L297.386667 381.866667a21.546667 21.546667 0 0 0 0 30.464l15.232 15.232a21.546667 21.546667 0 0 0 30.464 0l199.765333-199.765334a21.546667 21.546667 0 0 0 0-30.464zM481.92 197.290667l15.274667-15.232a21.546667 21.546667 0 0 1 30.464 0l199.722666 199.765333a21.546667 21.546667 0 0 1 0 30.464l-15.232 15.232a21.546667 21.546667 0 0 1-30.464 0l-199.765333-199.765333a21.546667 21.546667 0 0 1 0-30.464z m-287.402667-76.416v-81.834667h642.730667v81.834667a21.546667 21.546667 0 0 0 21.546667 21.546666h23.424a21.546667 21.546667 0 0 0 21.546666-21.546666v-129.28a21.546667 21.546667 0 0 0-21.546666-21.546667H149.546667A21.546667 21.546667 0 0 0 128-8.405333v129.28a21.546667 21.546667 0 0 0 21.546667 21.546666h23.424a21.546667 21.546667 0 0 0 21.546666-21.546666z"  horiz-adv-x="1024" />

    
    <glyph glyph-name="wodeshuju" unicode="&#58948;" d="M85.674667 500.053333H325.973333v-413.738666H85.674667V500.053333zM389.845333 810.261333H630.186667v-723.968H389.845333V810.282667z m304.192-206.805333h240.298667v-517.162667H694.037333V603.477333zM916.096-41.301333H107.178667a21.290667 21.290667 0 0 0-21.290667 21.290666v21.290667c0 11.754667 9.514667 21.290667 21.290667 21.290667h808.917333c11.733333 0 21.290667-9.536 21.290667-21.290667v-21.290667a21.290667 21.290667 0 0 0-21.290667-21.290666z"  horiz-adv-x="1024" />

    
    <glyph glyph-name="fufeishuju" unicode="&#58949;" d="M916.010667 810.325333a21.290667 21.290667 0 0 0 21.290666-21.290666v-809.045334a21.290667 21.290667 0 0 0-21.290666-21.290666H106.965333a21.290667 21.290667 0 0 0-21.290666 21.290666V789.034667a21.290667 21.290667 0 0 0 21.290666 21.290666h809.045334zM676.693333 622.997333a21.290667 21.290667 0 0 1-29.888-3.669333l-143.210666-183.253333a21.44 21.44 0 0 1-1.877334-2.88h-160.96a21.290667 21.290667 0 0 1-21.290666-21.290667v-21.290667c0-11.754667 9.514667-21.290667 21.290666-21.290666h145.621334v-69.909334h-145.621334a21.290667 21.290667 0 0 1-21.141333-18.816l-0.128-2.474666v-21.290667c0-11.733333 9.514667-21.290667 21.290667-21.290667h145.6v-106.112c0-10.794667 8.106667-19.882667 18.816-21.12l2.496-0.170666h21.290666a21.290667 21.290667 0 0 1 21.290667 21.290666l-0.021333 106.112h131.946666a21.290667 21.290667 0 0 1 21.162667 18.816l0.128 2.474667v21.290667a21.290667 21.290667 0 0 1-21.290667 21.290666h-131.946666v69.909334h131.946666a21.290667 21.290667 0 0 1 21.162667 18.773333l0.128 2.496v21.290667a21.290667 21.290667 0 0 1-21.290667 21.290666H582.4l114.730667 146.837334a21.290667 21.290667 0 0 1-1.664 28.096l-1.984 1.792-16.789334 13.098666z m-326.741333 0a21.12 21.12 0 0 1-0.085333-0.064l-16.789334-13.098666a21.290667 21.290667 0 0 1-3.733333-29.802667l78.954667-102.144a21.290667 21.290667 0 0 1 29.973333-3.754667l16.768 13.098667a21.290667 21.290667 0 0 1 3.733333 29.802667l-78.954666 102.144a21.290667 21.290667 0 0 1-29.866667 3.84v-0.021334z"  horiz-adv-x="1024" />

    
    <glyph glyph-name="filter" unicode="&#58946;" d="M860.16 810.410667A74.496 74.496 0 0 0 907.52 678.4L652.714667 468.48a10.666667 10.666667 0 0 1-3.882667-8.234667v-400.512c0-25.429333-10.112-49.792-28.074667-67.754666l-2.56-2.56a73.728 73.728 0 0 0-85.077333-13.824L424.96 29.653333a95.829333 95.829333 0 0 0-52.949333 85.717334V460.330667a10.666667 10.666667 0 0 1-3.84 8.234666L113.322667 678.4A74.538667 74.538667 0 0 0 160.725333 810.410667H860.16z m0-63.872H160.725333a10.666667 10.666667 0 0 1-6.741333-18.858667L408.746667 517.845333c17.194667-14.165333 27.136-35.285333 27.136-57.557333v-344.917333c0-12.117333 6.826667-23.168 17.664-28.586667l108.074666-54.058667a9.813333 9.813333 0 0 1 11.392 1.877334l2.56 2.56c5.973333 5.973333 9.386667 14.122667 9.386667 22.613333V460.288c0 22.272 9.898667 43.392 27.093333 57.557333l254.805334 209.834667a10.666667 10.666667 0 0 1-6.741334 18.858667z"  horiz-adv-x="1024" />

    
    <glyph glyph-name="setup" unicode="&#58947;" d="M511.744 810.24c31.061333 0 61.696-3.370667 91.52-9.984l14.165333-3.157333 47.061334-106.837334c4.821333-10.922667 15.786667-17.664 26.794666-17.152l2.645334 0.170667 115.968 12.885333 9.813333-10.624a418.986667 418.986667 0 0 0 92.885333-160.853333l4.266667-13.824-68.949333-94.122667a28.416 28.416 0 0 1-1.621334-31.488l1.706667-2.474666 68.522667-93.184-4.352-13.824a418.986667 418.986667 0 0 0-90.88-157.909334l-9.813334-10.752-117.546666 13.056a28.714667 28.714667 0 0 1-29.44-16.938666l-47.957334-108.842667-14.208-3.157333a420.864 420.864 0 0 0-181.845333 0.170666l-14.165333 3.157334-47.872 108.672a28.458667 28.458667 0 0 1-26.794667 17.109333l-2.645333-0.170667-117.034667-13.013333-9.856 10.752a418.986667 418.986667 0 0 0-90.581333 157.013333l-4.352 13.909334 69.12 93.952a28.714667 28.714667 0 0 1 0.042666 33.962666L106.88 501.632l4.266667 13.824a418.986667 418.986667 0 0 0 92.544 160l9.813333 10.666667 115.498667-12.8a28.714667 28.714667 0 0 1 29.44 16.938666L405.333333 796.928l14.208 3.2A420.778667 420.778667 0 0 0 511.744 810.24z m0-57.344c-20.266667 0-40.362667-1.706667-60.032-4.992l-5.589333-0.981333-35.157334-79.786667a86.101333 86.101333 0 0 0-84.138666-51.2l-4.138667 0.341333-86.314667 9.557334-3.029333-3.584a361.6 361.6 0 0 1-61.269333-105.856l-1.578667-4.48 52.181333-71.253334c21.248-29.013333 22.186667-68.138667 2.432-98.176l-2.56-3.712-51.626666-70.186666 1.834666-5.12a361.6 361.6 0 0 1 58.794667-101.888l3.456-4.138667 88.533333 9.813333 4.437334 0.384a86.101333 86.101333 0 0 0 82.986666-51.285333l36.010667-81.706667 5.333333-0.981333c16.256-2.688 32.768-4.266667 49.408-4.693333l10.026667-0.170667c18.986667 0 37.76 1.493333 56.234667 4.352l7.936 1.365333 36.053333 81.834667a86.101333 86.101333 0 0 0 84.181333 51.2l4.096-0.341333 88.149334-9.813334 2.816 3.285334a361.557333 361.557333 0 0 1 60.16 104.448l1.450666 4.181333-51.626666 70.272-2.816 4.053333a86.101333 86.101333 0 0 0 3.242666 97.024l51.626667 70.570667-1.621333 4.565333a361.6 361.6 0 0 1-61.44 106.453334l-3.157334 3.669333-87.637333-9.770667-4.437333-0.298666a86.101333 86.101333 0 0 0-82.986667 51.242666l-35.2 79.914667-5.418667 0.981333a363.861333 363.861333 0 0 1-49.536 4.736l-10.069333 0.170667z m-0.64-208.554667a152.448 152.448 0 1 0 0-304.938666 152.448 152.448 0 0 0 0 304.938666z m0-57.386666a95.061333 95.061333 0 1 1 0-190.165334 95.061333 95.061333 0 0 1 0 190.165334z"  horiz-adv-x="1024" />

    
    <glyph glyph-name="left-arrow21" unicode="&#58891;" d="M278.4 804.437333l-16.085333-15.914666a21.162667 21.162667 0 0 1 0-30.122667L641.109333 384l-378.794666-374.4a21.162667 21.162667 0 0 1 0-30.122667l16.085333-15.914666a21.76 21.76 0 0 1 30.506667 0l410.112 405.333333a21.162667 21.162667 0 0 1 0 30.165333l-410.112 405.333334a21.76 21.76 0 0 1-30.506667 0z"  horiz-adv-x="1024" />

    
    <glyph glyph-name="left-arrow" unicode="&#58928;" d="M637.568 675.882667l292.352-292.309334a21.418667 21.418667 0 0 0 0-30.293333l-292.352-292.352a21.418667 21.418667 0 0 0-30.293333 0l-15.104 15.146667a21.418667 21.418667 0 0 0 0 30.293333l229.973333 229.973333H107.306667a21.418667 21.418667 0 0 0-21.418667 21.418667v21.418667a21.418667 21.418667 0 0 0 21.418667 21.418666h714.666666L592.213333 630.442667a21.418667 21.418667 0 0 0 0 30.293333l15.104 15.146667a21.418667 21.418667 0 0 0 30.293334 0z"  horiz-adv-x="1024" />

    
    <glyph glyph-name="right-arrow" unicode="&#58932;" d="M384.554667 675.882667L92.202667 383.573333a21.418667 21.418667 0 0 1 0-30.293333l292.352-292.352a21.418667 21.418667 0 0 1 30.293333 0l15.146667 15.146667a21.418667 21.418667 0 0 1 0 30.293333l-229.973334 229.973333H914.773333a21.418667 21.418667 0 0 1 21.418667 21.418667v21.418667a21.418667 21.418667 0 0 1-21.418667 21.418666H200.106667l229.888 229.845334a21.418667 21.418667 0 0 1 0 30.293333l-15.146667 15.146667a21.418667 21.418667 0 0 1-30.293333 0z"  horiz-adv-x="1024" />

    
    <glyph glyph-name="right-arrow21" unicode="&#58945;" d="M702.933333-36.437333l16.085334 15.914666a21.162667 21.162667 0 0 1 0 30.122667L340.224 384l378.794667 374.4a21.162667 21.162667 0 0 1 0 30.122667l-16.085334 15.914666a21.76 21.76 0 0 1-30.506666 0l-410.112-405.333333a21.162667 21.162667 0 0 1 0-30.165333l410.112-405.333334a21.76 21.76 0 0 1 30.506666 0z"  horiz-adv-x="1024" />

    
    <glyph glyph-name="queren" unicode="&#58939;" d="M512 810.666667c79.488-18.773333 150.272-37.546667 212.309333-56.32 62.08-18.730667 119.424-36.778667 171.690667-53.333334v-293.034666c-5.802667-129.877333-48.981333-231.978667-129.194667-305.92-80.213333-73.984-165.12-122.368-254.805333-144.725334-89.642667 22.357333-174.592 70.741333-254.805333 144.682667-80.213333 73.984-123.392 176.085333-129.194667 305.962667V701.013333c52.266667 16.64 109.226667 34.304 171.690667 53.418667C362.112 773.504 432.512 791.893333 512 810.666667z m245.418667-261.546667a26.197333 26.197333 0 0 1-36.650667-2.133333l-257.493333-286.037334-119.04 132.266667a26.197333 26.197333 0 0 1-36.096 1.493333 25.429333 25.429333 0 0 1-2.688-35.584l138.410666-153.770666a26.112 26.112 0 0 1 38.826667 0l276.906667 307.626666a25.429333 25.429333 0 0 1-2.176 36.138667z"  horiz-adv-x="1024" />

    
    <glyph glyph-name="jingshi" unicode="&#58943;" d="M512 810.666667c79.488-18.773333 150.272-37.546667 212.309333-56.32 62.08-18.730667 119.424-36.778667 171.690667-53.333334v-293.034666c-5.802667-129.877333-48.981333-231.978667-129.194667-305.92-80.213333-73.984-165.12-122.368-254.805333-144.725334-89.642667 22.357333-174.592 70.741333-254.805333 144.682667-80.213333 73.984-123.392 176.085333-129.194667 305.962667V701.013333c52.266667 16.64 109.226667 34.304 171.690667 53.418667C362.112 773.504 432.512 791.893333 512 810.666667z m16.298667-557.909334a42.496 42.496 0 0 1-46.378667-9.258666A42.752 42.752 0 0 1 512 170.666667a42.666667 42.666667 0 1 1 16.298667 82.090666zM512 597.333333a42.624 42.624 0 0 1-42.538667-42.666666v-213.333334c0-23.552 19.029333-42.666667 42.538667-42.666666 23.466667 0 42.581333 19.114667 42.581333 42.666666V554.666667c0 23.552-19.072 42.666667-42.581333 42.666666z"  horiz-adv-x="1024" />

    
    <glyph glyph-name="tixingyouxinxinxi" unicode="&#58944;" d="M641.969231 14.178462c11.972923 0 21.661538-9.452308 21.661538-21.149539v-21.110154a21.385846 21.385846 0 0 0-21.661538-21.149538H382.030769a21.385846 21.385846 0 0 0-21.661538 21.149538v21.110154c0 11.697231 9.688615 21.149538 21.661538 21.149539h259.938462zM100.430769 98.697846a21.385846 21.385846 0 0 0-21.661538 21.149539v21.110153c0 11.697231 9.688615 21.149538 21.661538 21.149539h97.437539l0.039384 306.412308c0 140.918154 97.437538 259.544615 230.203077 295.384615a19.928615 19.928615 0 0 0-3.308307 11.027692v21.149539c0 11.697231 9.688615 21.149538 21.661538 21.149538h131.072c11.972923 0 21.661538-9.452308 21.661538-21.149538v-21.110154c0-4.096-1.181538-7.876923-3.229538-11.106462 132.686769-35.761231 230.124308-154.427077 230.124308-295.34523l-0.039385-306.412308h97.516308c11.972923 0 21.661538-9.452308 21.661538-21.149539v-21.110153a21.385846 21.385846 0 0 0-21.661538-21.149539H100.430769zM512 711.561846c-135.483077 0-245.681231-105.472-249.028923-236.859077l-0.078769-6.183384v-306.412308h498.215384v306.412308c0 132.174769-108.110769 239.694769-242.766769 243.003077L512 711.522462zM787.692308 659.692308m-216.615385 0a216.615385 216.615385 0 1 1 433.230769 0 216.615385 216.615385 0 1 1-433.230769 0Z"  horiz-adv-x="1024" />

    
    <glyph glyph-name="gantan" unicode="&#58937;" d="M512 810.666667c235.648 0 426.666667-188.629333 426.666667-421.333334s-191.018667-421.333333-426.666667-421.333333-426.666667 188.629333-426.666667 421.333333S276.352 810.666667 512 810.666667z m16.298667-557.909334a42.496 42.496 0 0 1-46.378667-9.258666A42.752 42.752 0 0 1 512 170.666667a42.666667 42.666667 0 1 1 16.298667 82.090666zM512 597.333333a42.624 42.624 0 0 1-42.538667-42.666666v-213.333334c0-23.552 19.029333-42.666667 42.538667-42.666666 23.466667 0 42.581333 19.114667 42.581333 42.666666V554.666667c0 23.552-19.072 42.666667-42.581333 42.666666z"  horiz-adv-x="1024" />

    
    <glyph glyph-name="shangsheng" unicode="&#58938;" d="M78.464-20.48c-14.72 14.549333-18.517333 34.474667-8.618667 44.458667L545.877333 499.882667 325.461333 720.341333a34.986667 34.986667 0 0 0 24.149334 59.52l529.152 9.130667a34.986667 34.986667 0 0 0 35.626666-35.541333l-9.216-529.28a34.986667 34.986667 0 0 0-59.562666-24.149334l-220.16 220.288L149.418667-55.594667a20.266667 20.266667 0 0 0-14.378667-5.546666l-6.101333 0.597333a47.957333 47.957333 0 0 0-24.149334 13.482667l-26.325333 26.538666z"  horiz-adv-x="1024" />

    
    <glyph glyph-name="cuowu" unicode="&#58940;" d="M512 810.666667c235.648 0 426.666667-191.018667 426.666667-426.666667s-191.018667-426.666667-426.666667-426.666667S85.333333 148.352 85.333333 384 276.352 810.666667 512 810.666667z m191.445333-200.405334L512 418.816 320.554667 610.261333 274.133333 563.84l191.445334-191.402667-179.84-179.882666 46.421333-46.421334L512 325.973333l179.84-179.882666 46.421333 46.421333-179.84 179.882667 191.445334 191.402666-46.421334 46.421334z"  horiz-adv-x="1024" />

    
    <glyph glyph-name="xiajiang" unicode="&#58941;" d="M105.002667 774.826667c14.762667 14.762667 34.730667 18.602667 44.757333 8.661333l477.184-477.397333 240.512 240.426666a23.424 23.424 0 0 0 39.936-16.128l9.557333-570.24a23.424 23.424 0 0 0-22.954666-23.765333h-0.810667L322.986667-54.058667a23.424 23.424 0 0 0-16.128 39.936l240.298666 240.426667L69.845333 703.701333a20.309333 20.309333 0 0 0-5.546666 14.293334l0.597333 6.229333c2.048 9.173333 6.826667 17.578667 13.610667 24.106667l26.496 26.496z"  horiz-adv-x="1024" />

    
    <glyph glyph-name="duigou1" unicode="&#58942;" d="M512 810.666667c235.648 0 426.666667-188.629333 426.666667-421.333334s-191.018667-421.333333-426.666667-421.333333-426.666667 188.629333-426.666667 421.333333S276.352 810.666667 512 810.666667z m245.418667-261.546667a26.197333 26.197333 0 0 1-36.650667-2.133333l-257.493333-286.037334-119.04 132.266667a26.197333 26.197333 0 0 1-36.096 1.493333 25.429333 25.429333 0 0 1-2.688-35.584l138.410666-153.770666a26.112 26.112 0 0 1 38.826667 0l276.906667 307.626666a25.429333 25.429333 0 0 1-2.176 36.138667z"  horiz-adv-x="1024" />

    
    <glyph glyph-name="chanpin" unicode="&#58880;" d="M509.824 831.658667c112.085333 0 205.333333-80.576 225.002667-186.965334h72.554666c10.922667 0 20.245333-7.936 21.973334-18.730666l104.234666-656.085334a22.229333 22.229333 0 0 0-21.973333-25.706666H108.266667a22.208 22.208 0 0 0-21.994667 25.301333l91.861333 656.064a22.229333 22.229333 0 0 0 21.994667 19.157333h84.714667c19.690667 106.389333 112.938667 186.965333 225.002666 186.965334z m259.498667-252.629334H238.869333l-79.68-569.173333h700.586667l-90.453333 569.194667zM509.824 765.013333a162.218667 162.218667 0 0 1-156.693333-120.32h313.408a162.218667 162.218667 0 0 1-156.736 120.32h0.021333z"  horiz-adv-x="1024" />

    
    <glyph glyph-name="bangzhuzhongxin" unicode="&#58881;" d="M511.061333 810.069333c234.773333 0 425.109333-190.336 425.109334-425.130666 0-234.773333-190.336-425.109333-425.109334-425.109334-234.794667 0-425.130667 190.336-425.130666 425.109334 0 234.794667 190.336 425.130667 425.130666 425.130666z m14.037334-582.122666h-27.093334a19.328 19.328 0 0 1-19.306666-19.328v-50.901334c0-10.666667 8.64-19.328 19.306666-19.328h27.093334a19.328 19.328 0 0 1 19.328 19.328v50.901334a19.328 19.328 0 0 1-19.328 19.328z m-6.997334 388.885333a142.378667 142.378667 0 0 1-134.848-96.725333c-1.92-5.76-3.626667-13.610667-5.056-23.552a19.328 19.328 0 0 1 19.136-22.037334h27.84a19.328 19.328 0 0 1 18.944 15.530667c1.770667 8.874667 3.733333 15.36 5.845334 19.456a76.458667 76.458667 0 0 0 68.138666 41.6 76.586667 76.586667 0 0 0 67.968-111.914667l-1.6-2.816-48.106666-41.152-4.693334-4.16a164.330667 164.330667 0 0 1-51.946666-103.296c-0.213333-2.325333-0.362667-4.629333-0.426667-6.954666a19.328 19.328 0 0 1 19.328-19.328h31.68a14.357333 14.357333 0 0 1 14.357333 14.208 98.474667 98.474667 0 0 0 34.474667 69.333333l51.370667 44.096 5.525333 6.848a136.32 136.32 0 0 1 24.384 78.549333 142.293333 142.293333 0 0 1-142.314667 142.293334z"  horiz-adv-x="1024" />

    
    <glyph glyph-name="feijiegouhuashuju" unicode="&#58882;" d="M512 810.666667a149.333333 149.333333 0 0 0 134.954667-85.333334H832a21.333333 21.333333 0 0 0 21.333333-21.333333v-192h71.104c7.872 0 14.229333-6.357333 14.229334-14.229333v-227.541334a14.229333 14.229333 0 0 0-14.229334-14.229333H853.333333v-170.666667a21.333333 21.333333 0 0 0-21.333333-21.333333l-176.853333-0.021333a149.397333 149.397333 0 0 0-286.293334 0L213.333333 64a21.333333 21.333333 0 0 0-21.333333 21.333333v170.666667H99.562667A14.229333 14.229333 0 0 0 85.333333 270.229333V497.770667c0 7.872 6.357333 14.229333 14.229334 14.229333H192V704a21.333333 21.333333 0 0 0 21.333333 21.333333h163.712A149.333333 149.333333 0 0 0 512 810.666667z m277.333333-149.333334h-128a149.333333 149.333333 0 0 0-298.666666 0h-106.666667v-149.333333h71.104c7.872 0 14.229333-6.357333 14.229333-14.229333v-227.541334a14.229333 14.229333 0 0 0-14.229333-14.229333H256v-128h108.16a149.376 149.376 0 0 0 295.68 0H789.333333v128h-92.437333a14.229333 14.229333 0 0 0-14.229333 14.229333V497.770667c0 7.872 6.357333 14.229333 14.229333 14.229333H789.333333v149.333333z"  horiz-adv-x="1024" />

    
    <glyph glyph-name="fenxigongju" unicode="&#58883;" d="M384 341.333333a85.333333 85.333333 0 0 0 85.333333-85.333333v-213.333333a85.333333 85.333333 0 0 0-85.333333-85.333334H170.666667a85.333333 85.333333 0 0 0-85.333334 85.333334V256a85.333333 85.333333 0 0 0 85.333334 85.333333h213.333333z m469.333333 0a85.333333 85.333333 0 0 0 85.333334-85.333333v-213.333333a85.333333 85.333333 0 0 0-85.333334-85.333334H640a85.333333 85.333333 0 0 0-85.333333 85.333334V256a85.333333 85.333333 0 0 0 85.333333 85.333333h213.333333zM806.997333 829.866667l150.848-150.869334a85.333333 85.333333 0 0 0 0-120.661333L807.04 407.466667a85.333333 85.333333 0 0 0-120.682667 0L535.466667 558.293333a85.333333 85.333333 0 0 0 0 120.682667L686.293333 829.866667a85.333333 85.333333 0 0 0 120.682667 0zM384 810.666667a85.333333 85.333333 0 0 0 85.333333-85.333334v-213.333333a85.333333 85.333333 0 0 0-85.333333-85.333333H170.666667a85.333333 85.333333 0 0 0-85.333334 85.333333V725.333333a85.333333 85.333333 0 0 0 85.333334 85.333334h213.333333z"  horiz-adv-x="1024" />

    
    <glyph glyph-name="bangzhuline" unicode="&#58884;" d="M512 810.666667c235.648 0 426.666667-191.018667 426.666667-426.666667s-191.018667-426.666667-426.666667-426.666667S85.333333 148.352 85.333333 384 276.352 810.666667 512 810.666667z m0-64a362.666667 362.666667 0 1 1 0-725.333334 362.666667 362.666667 0 0 1 0 725.333334z m14.08-520.234667a19.413333 19.413333 0 0 0 19.413333-19.413333v-51.072a19.413333 19.413333 0 0 0-19.413333-19.413334h-27.178667a19.413333 19.413333 0 0 0-19.370666 19.413334v51.072a19.413333 19.413333 0 0 0 19.370666 19.413333z m-7.04 390.314667a142.805333 142.805333 0 0 0 142.848-142.848 136.832 136.832 0 0 0-24.448-78.805334l-5.546667-6.912-51.584-44.245333c-20.522667-17.493333-33.024-42.666667-34.56-69.589333a14.421333 14.421333 0 0 0-14.421333-14.250667h-31.829333a19.413333 19.413333 0 0 0-19.370667 19.370667 108.8 108.8 0 0 0 0.426667 6.997333c4.266667 39.722667 22.784 76.586667 52.138666 103.68l4.693334 4.181333 48.298666 41.301334 1.621334 2.816a76.842667 76.842667 0 1 1-136.618667 70.570666c-2.133333-4.096-4.096-10.666667-5.888-19.541333a19.413333 19.413333 0 0 0-18.986667-15.573333h-27.946666a19.413333 19.413333 0 0 0-19.2 22.101333c1.408 9.984 3.114667 17.877333 5.077333 23.68a142.933333 142.933333 0 0 0 135.296 97.066667z"  horiz-adv-x="1024" />

    
    <glyph glyph-name="fenxi" unicode="&#58885;" d="M468.949333 768.064l0.021334-390.229333h396.906666c0-215.530667-174.72-390.272-390.272-390.272C260.074667-12.437333 85.333333 162.282667 85.333333 377.834667c0 213.184 170.901333 386.432 383.189334 390.208l0.426666 0.021333zM525.76 810.666667c206.933333 0 374.656-167.744 374.656-374.677334H525.76z"  horiz-adv-x="1024" />

    
    <glyph glyph-name="bangzhu" unicode="&#58886;" d="M512 810.666667c235.648 0 426.666667-191.018667 426.666667-426.666667s-191.018667-426.666667-426.666667-426.666667S85.333333 148.352 85.333333 384 276.352 810.666667 512 810.666667z m14.08-584.234667h-27.178667a19.413333 19.413333 0 0 1-19.370666-19.413333v-51.072c0-10.709333 8.661333-19.413333 19.370666-19.413334h27.178667a19.413333 19.413333 0 0 1 19.413333 19.413334v51.072a19.413333 19.413333 0 0 1-19.413333 19.413333z m-7.04 390.314667A142.933333 142.933333 0 0 1 383.744 519.68c-1.962667-5.802667-3.669333-13.653333-5.077333-23.68a19.413333 19.413333 0 0 1 19.2-22.101333h27.946666a19.413333 19.413333 0 0 1 18.986667 15.573333c1.792 8.917333 3.754667 15.445333 5.888 19.541333a76.842667 76.842667 0 1 0 136.618667-70.570666l-1.621334-2.816-48.298666-41.301334-4.693334-4.181333a164.906667 164.906667 0 0 1-52.138666-103.68 108.8 108.8 0 0 1-0.426667-6.997333 19.413333 19.413333 0 0 1 19.370667-19.370667h31.829333a14.421333 14.421333 0 0 1 14.378667 14.250667c1.578667 26.965333 14.08 52.053333 34.602666 69.546666l51.584 44.288 5.546667 6.912a136.832 136.832 0 0 1 24.448 78.805334 142.805333 142.805333 0 0 1-142.848 142.848z"  horiz-adv-x="1024" />

    
    <glyph glyph-name="fenbufenxi" unicode="&#58887;" d="M384.853333 810.666667c11.306667 0 20.48-9.173333 20.48-20.48v-812.373334c0-11.306667-9.173333-20.48-20.48-20.48H105.813333a20.48 20.48 0 0 0-20.48 20.48V790.186667c0 11.306667 9.173333 20.48 20.48 20.48h279.04z m533.333334-469.333334c11.306667 0 20.48-9.173333 20.48-20.48v-343.04c0-11.306667-9.173333-20.48-20.48-20.48H511.146667a20.48 20.48 0 0 0-20.48 20.48V320.853333c0 11.306667 9.173333 20.48 20.48 20.48h407.04z m0 469.333334c11.306667 0 20.48-9.173333 20.48-20.48v-343.04c0-11.306667-9.173333-20.48-20.48-20.48H511.146667a20.48 20.48 0 0 0-20.48 20.48V790.186667c0 11.306667 9.173333 20.48 20.48 20.48h407.04z"  horiz-adv-x="1024" />

    
    <glyph glyph-name="duigou" unicode="&#58888;" d="M914.858667 633.514667l14.677333-14.762667c8.106667-8.106667 8.106667-21.248 0-29.397333l-506.88-506.88a20.778667 20.778667 0 0 0-29.354667 0l-301.781333 301.738666a20.778667 20.778667 0 0 0 0 29.397334l14.677333 14.72c8.106667 8.106667 21.333333 8.106667 29.44 0l272.341334-272.341334 477.44 477.482667c8.106667 8.106667 21.333333 8.106667 29.44 0z"  horiz-adv-x="1024" />

    
    <glyph glyph-name="jiegouhuashuju" unicode="&#58889;" d="M459.2 394.56a14.933333 14.933333 0 0 0 0-21.12l-168.96-168.96a14.933333 14.933333 0 0 0-21.12 0l-168.938667 168.96a14.933333 14.933333 0 0 0 0 21.12l168.96 168.96a14.933333 14.933333 0 0 0 21.12 0l168.96-168.96z m232.32-232.32a14.933333 14.933333 0 0 0 0-21.12l-168.96-168.938667a14.933333 14.933333 0 0 0-21.12 0l-168.96 168.96a14.933333 14.933333 0 0 0 0 21.12l168.96 168.96a14.933333 14.933333 0 0 0 21.12 0l168.96-168.96z m232.298667 232.32a14.933333 14.933333 0 0 0 0-21.12l-168.96-168.96a14.933333 14.933333 0 0 0-21.12 0l-168.96 168.96a14.933333 14.933333 0 0 0 0 21.12l168.96 168.96a14.933333 14.933333 0 0 0 21.12 0l168.96-168.96z m-232.32 232.32a14.933333 14.933333 0 0 0 0-21.12l-168.938667-168.96a14.933333 14.933333 0 0 0-21.12 0l-168.96 168.96a14.933333 14.933333 0 0 0 0 21.12l168.96 168.938667a14.933333 14.933333 0 0 0 21.12 0l168.96-168.96z"  horiz-adv-x="1024" />

    
    <glyph glyph-name="jiangefenxi" unicode="&#58890;" d="M544 810.666667a21.333333 21.333333 0 0 0 21.333333-21.333334v-810.666666a21.333333 21.333333 0 0 0-21.333333-21.333334h-64a21.333333 21.333333 0 0 0-21.333333 21.333334V789.333333a21.333333 21.333333 0 0 0 21.333333 21.333334h64zM362.666667 682.666667a21.333333 21.333333 0 0 0 21.333333-21.333334v-512a21.333333 21.333333 0 0 0-21.333333-21.333333H106.666667a21.333333 21.333333 0 0 0-21.333334 21.333333V661.333333a21.333333 21.333333 0 0 0 21.333334 21.333334h256z m554.666666 0a21.333333 21.333333 0 0 0 21.333334-21.333334v-512a21.333333 21.333333 0 0 0-21.333334-21.333333H661.333333a21.333333 21.333333 0 0 0-21.333333 21.333333V661.333333a21.333333 21.333333 0 0 0 21.333333 21.333334h256z"  horiz-adv-x="1024" />

    
    <glyph glyph-name="guanyuline1" unicode="&#58892;" d="M512 810.666667c235.648 0 426.666667-191.018667 426.666667-426.666667s-191.018667-426.666667-426.666667-426.666667S85.333333 148.352 85.333333 384 276.352 810.666667 512 810.666667z m0-58.197334a368.469333 368.469333 0 1 1 0-736.938666 368.469333 368.469333 0 0 1 0 736.938666z m9.685333-290.901333c10.709333 0 19.413333-8.661333 19.413334-19.370667v-233.941333a19.413333 19.413333 0 0 0-19.413334-19.370667h-19.370666a19.413333 19.413333 0 0 0-19.413334 19.370667v233.941333c0 10.666667 8.704 19.370667 19.413334 19.370667h19.370666zM512 597.333333a38.826667 38.826667 0 1 0 0-77.568A38.826667 38.826667 0 0 0 512 597.333333z"  horiz-adv-x="1024" />

    
    <glyph glyph-name="jine" unicode="&#58893;" d="M726.485333 793.258667a21.333333 21.333333 0 0 0 28.458667 7.637333l41.386667-22.698667 0.853333-0.469333a21.333333 21.333333 0 0 0 7.125333-29.312l-192.512-316.117333H789.333333a21.333333 21.333333 0 0 0 21.333334-21.333334v-43.690666a21.333333 21.333333 0 0 0-21.333334-21.333334h-229.162666v-86.357333H789.333333a21.333333 21.333333 0 0 0 21.333334-21.333333v-43.690667a21.333333 21.333333 0 0 0-21.333334-21.333333h-229.162666v-194.56a21.333333 21.333333 0 0 0-21.333334-21.333334h-48.384a21.333333 21.333333 0 0 0-21.333333 21.333334l-0.042667 194.56h-229.12a21.333333 21.333333 0 0 0-21.333333 21.333333v43.690667a21.333333 21.333333 0 0 0 21.333333 21.333333h229.12v86.357333h-229.12a21.333333 21.333333 0 0 0-21.333333 21.333334v43.690666a21.333333 21.333333 0 0 0 21.333333 21.333334h177.493334L224.938667 748.416a21.333333 21.333333 0 0 0 7.125333 29.312l0.853333 0.469333 41.429334 22.698667a21.333333 21.333333 0 0 0 28.458666-7.637333l211.84-347.818667z"  horiz-adv-x="1024" />

    
    <glyph glyph-name="kanban" unicode="&#58894;" d="M825.728 28.437333a20.906667 20.906667 0 0 0 20.906667-20.906666v-20.906667a20.906667 20.906667 0 0 0-20.906667-20.906667H198.272a20.906667 20.906667 0 0 0-20.906667 20.906667v20.906667a20.906667 20.906667 0 0 0 20.906667 20.906666h627.456z m83.648 773.866667a20.906667 20.906667 0 0 0 20.906667-20.906667v-648.384a20.906667 20.906667 0 0 0-20.906667-20.906666H114.624a20.906667 20.906667 0 0 0-20.906667 20.906666V781.376a20.906667 20.906667 0 0 0 20.906667 20.906667h794.752z m-163.434667-185.984l-5.12-2.261333-3.776-3.008-193.088-193.088-110.698666 110.698666-3.776 2.986667a20.949333 20.949333 0 0 1-21.205334 0.490667l-4.608-3.477334-159.914666-159.936a20.906667 20.906667 0 0 1-2.986667-25.792l2.986667-3.776 14.784-14.784 3.776-3.008a20.949333 20.949333 0 0 1 21.205333-0.490666l4.608 3.498666 130.346667 130.346667 110.698666-110.72a20.906667 20.906667 0 0 1 25.792-2.986667l3.776 2.986667L781.44 566.677333a20.906667 20.906667 0 0 1 2.986667 25.813334l-2.986667 3.776-14.784 14.784a20.906667 20.906667 0 0 1-20.693333 5.269333z"  horiz-adv-x="1024" />

    
    <glyph glyph-name="meijiehuaxiang" unicode="&#58895;" d="M843.861333 810.666667C896 810.666667 938.666667 768 938.666667 715.861333v-663.722666C938.666667 0 896-42.666667 843.861333-42.666667H180.138667C128-42.666667 85.333333 0 85.333333 52.138667V715.861333C85.333333 768 128 810.666667 180.138667 810.666667zM405.333333 588.821333a42.666667 42.666667 0 0 1-42.666666-42.666666v-281.642667a42.666667 42.666667 0 0 1 63.381333-37.290667l253.482667 140.8a42.666667 42.666667 0 0 1 0 74.602667L426.048 583.466667a42.666667 42.666667 0 0 1-20.714667 5.376z"  horiz-adv-x="1024" />

    
    <glyph glyph-name="gengduo" unicode="&#58896;" d="M99.413333 426.24h106.154667c7.338667 0 13.226667-5.930667 13.226667-13.226667v-106.154666a13.226667 13.226667 0 0 0-13.226667-13.269334H99.413333a13.226667 13.226667 0 0 0-13.226666 13.226667V413.013333C86.186667 420.309333 92.074667 426.24 99.413333 426.24z m371.498667 0h106.112c7.338667 0 13.269333-5.930667 13.269333-13.226667v-106.154666a13.226667 13.226667 0 0 0-13.226666-13.269334H470.869333a13.226667 13.226667 0 0 0-13.269333 13.226667V413.013333a13.226667 13.226667 0 0 0 13.226667 13.269334z m344.917333 0h106.154667c7.338667 0 13.226667-5.930667 13.226667-13.226667v-106.154666a13.226667 13.226667 0 0 0-13.226667-13.269334h-106.154667a13.226667 13.226667 0 0 0-13.226666 13.226667V413.013333c0 7.338667 5.930667 13.269333 13.226666 13.269334z"  horiz-adv-x="1024" />

    
    <glyph glyph-name="liucunfenxi" unicode="&#58897;" d="M318.826667 240.554667c10.282667 0 18.624-8.32 18.624-18.624v-96.64c0-10.282667-8.32-18.624-18.624-18.624H103.957333A18.624 18.624 0 0 0 85.333333 125.290667v96.64c0 10.282667 8.32 18.624 18.624 18.624h214.869334z m0 210.389333c10.282667 0 18.624-8.32 18.624-18.624v-96.64c0-10.282667-8.32-18.624-18.624-18.624H103.957333A18.624 18.624 0 0 0 85.333333 335.68v96.64c0 10.282667 8.32 18.624 18.624 18.624h214.869334z m310.314666 0c10.282667 0 18.624-8.32 18.624-18.624v-96.64c0-10.282667-8.341333-18.624-18.624-18.624H414.250667a18.624 18.624 0 0 0-18.624 18.624v96.64c0 10.282667 8.341333 18.624 18.624 18.624h214.890666zM318.826667 661.333333c10.282667 0 18.624-8.32 18.624-18.624v-96.64c0-10.282667-8.32-18.624-18.624-18.624H103.957333A18.624 18.624 0 0 0 85.333333 546.069333v96.64c0 10.282667 8.32 18.624 18.624 18.624h214.869334z m310.314666 0c10.282667 0 18.624-8.32 18.624-18.624v-96.64c0-10.282667-8.341333-18.624-18.624-18.624H414.250667a18.624 18.624 0 0 0-18.624 18.624v96.64c0 10.282667 8.341333 18.624 18.624 18.624h214.890666z m290.901334 0c10.282667 0 18.624-8.32 18.624-18.624v-96.64c0-10.282667-8.32-18.624-18.624-18.624H705.173333a18.624 18.624 0 0 0-18.624 18.624v96.64c0 10.282667 8.32 18.624 18.624 18.624h214.869334z"  horiz-adv-x="1024" />

    
    <glyph glyph-name="guanyu" unicode="&#58898;" d="M512 810.666667c235.648 0 426.666667-191.018667 426.666667-426.666667s-191.018667-426.666667-426.666667-426.666667S85.333333 148.352 85.333333 384 276.352 810.666667 512 810.666667z m9.685333-349.098667h-19.370666a19.413333 19.413333 0 0 1-19.413334-19.370667v-233.941333c0-10.709333 8.704-19.370667 19.413334-19.370667h19.370666a19.413333 19.413333 0 0 1 19.413334 19.370667v233.941333a19.413333 19.413333 0 0 1-19.413334 19.370667zM512 597.333333a38.826667 38.826667 0 1 1 0-77.568A38.826667 38.826667 0 0 1 512 597.333333z"  horiz-adv-x="1024" />

    
    <glyph glyph-name="rili" unicode="&#58899;" d="M341.162667 810.325333a21.290667 21.290667 0 0 0 21.290666-21.290666v-63.872h298.069334V789.034667a21.290667 21.290667 0 0 0 21.333333 21.333333h21.248a21.290667 21.290667 0 0 0 21.333333-21.333333v-63.872h191.488a21.290667 21.290667 0 0 0 21.333334-21.290667v-723.84a21.290667 21.290667 0 0 0-21.333334-21.290667H106.88a21.290667 21.290667 0 0 0-21.290667 21.333334V703.829333a21.290667 21.290667 0 0 0 21.333334 21.333334h191.658666V788.992a21.290667 21.290667 0 0 0 21.290667 21.333333h21.290667z m532.181333-372.565333H149.461333v-415.146667H873.386667v415.146667zM298.581333 661.333333H149.504v-159.701333H873.386667V661.290667h-148.992v-42.581334a21.290667 21.290667 0 0 0-21.248-21.290666h-21.333334a21.290667 21.290667 0 0 0-21.248 21.333333v42.538667H362.410667v-42.581334a21.290667 21.290667 0 0 0-21.248-21.290666h-21.333334a21.290667 21.290667 0 0 0-21.248 21.333333v42.538667z"  horiz-adv-x="1024" />

    
    <glyph glyph-name="jingyingfenxi" unicode="&#58900;" d="M682.666667 42.666667a21.333333 21.333333 0 0 0 21.333333-21.333334v-42.666666a21.333333 21.333333 0 0 0-21.333333-21.333334H341.333333a21.333333 21.333333 0 0 0-21.333333 21.333334v42.666666a21.333333 21.333333 0 0 0 21.333333 21.333334h341.333334z m161.194666 768A94.805333 94.805333 0 0 0 938.666667 715.861333v-493.056A94.805333 94.805333 0 0 0 843.861333 128H180.138667A94.805333 94.805333 0 0 0 85.333333 222.805333V715.861333A94.805333 94.805333 0 0 0 180.138667 810.666667h663.722666zM320 640h-42.666667a21.333333 21.333333 0 0 1-21.333333-21.333333v-298.666667a21.333333 21.333333 0 0 1 21.333333-21.333333h42.666667a21.333333 21.333333 0 0 1 21.333333 21.333333V618.666667a21.333333 21.333333 0 0 1-21.333333 21.333333z m213.333333-170.666667h-42.666666a21.333333 21.333333 0 0 1-21.333334-21.333333v-128a21.333333 21.333333 0 0 1 21.333334-21.333333h42.666666a21.333333 21.333333 0 0 1 21.333334 21.333333v128a21.333333 21.333333 0 0 1-21.333334 21.333333z m213.333334 85.333334h-42.666667a21.333333 21.333333 0 0 1-21.333333-21.333334v-213.333333a21.333333 21.333333 0 0 1 21.333333-21.333333h42.666667a21.333333 21.333333 0 0 1 21.333333 21.333333V533.333333a21.333333 21.333333 0 0 1-21.333333 21.333334z"  horiz-adv-x="1024" />

    
    <glyph glyph-name="loudoufenxi" unicode="&#58901;" d="M715.904 164.224a21.376 21.376 0 0 0 19.221333-30.72l-38.293333-78.805333a21.376 21.376 0 0 0-19.221333-12.032H353.258667c-7.850667 0-15.082667 4.309333-18.816 11.221333l-42.496 78.805333a21.376 21.376 0 0 0 18.816 31.530667h405.141333z m128.298667 291.904a21.376 21.376 0 0 0 18.901333-31.36l-67.221333-127.445333a21.376 21.376 0 0 0-18.922667-11.392H254.101333c-7.701333 0-14.805333 4.138667-18.602666 10.837333l-72.106667 127.445333a21.376 21.376 0 0 0 18.624 31.914667h662.186667zM917.205333 746.666667a21.376 21.376 0 0 0 20.778667-26.453334l-4.074667-16.661333-25.984-106.24-2.581333-10.624c-2.346667-9.557333-10.922667-16.298667-20.778667-16.298667H140.522667c-9.856 0-18.432 6.741333-20.778667 16.298667l-2.496 10.24L85.824 725.12A17.408 17.408 0 0 0 102.741333 746.666667h814.464z"  horiz-adv-x="1024" />

    
    <glyph glyph-name="pinpaihuaxiang" unicode="&#58902;" d="M768.341333 810.666667a85.333333 85.333333 0 0 0 76.522667-47.573334l127.616-258.496a85.333333 85.333333 0 0 0-13.269333-95.04l-383.914667-424.106666a85.333333 85.333333 0 0 0-126.485333-0.021334l-384 423.466667a85.333333 85.333333 0 0 0-13.312 95.018667L179.178667 763.050667A85.333333 85.333333 0 0 0 255.722667 810.666667h512.618666zM361.173333 420.778667a21.333333 21.333333 0 0 1-29.909333 0l-24.810667-24.384-0.256-0.256a21.333333 21.333333 0 0 1 0.256-30.186667L497.066667 178.773333c3.84-3.776 8.746667-5.802667 13.717333-6.08h2.474667l2.496 0.277334a21.248 21.248 0 0 1 11.221333 5.802666l24.810667 24.362667 0.042666 0.064 165.717334 162.773333 0.256 0.256a21.333333 21.333333 0 0 1-0.256 30.165334l-24.810667 24.384a21.333333 21.333333 0 0 1-29.909333 0L512 272.64z"  horiz-adv-x="1024" />

    
    <glyph glyph-name="shuxingfenxi" unicode="&#58903;" d="M896 810.666667a21.333333 21.333333 0 0 0 21.333333-21.333334v-810.666666a21.333333 21.333333 0 0 0-21.333333-21.333334H149.333333a21.333333 21.333333 0 0 0-21.333333 21.333334V789.333333a21.333333 21.333333 0 0 0 21.333333 21.333334h746.666667zM320.106667 234.730667a21.333333 21.333333 0 0 1-21.354667-21.333334l0.021333-43.157333v-0.042667l0.149334-2.496a21.333333 21.333333 0 0 1 21.248-18.773333l85.205333 0.170667a21.333333 21.333333 0 0 1 21.290667 21.333333v42.837333a21.333333 21.333333 0 0 1-21.312 21.333334l-85.248 0.128zM746.666667 234.666667H533.333333a21.333333 21.333333 0 0 1-21.333333-21.333334v-42.666666a21.333333 21.333333 0 0 1 21.333333-21.333334h213.333334a21.333333 21.333333 0 0 1 21.333333 21.333334v42.666666a21.333333 21.333333 0 0 1-21.333333 21.333334z m-426.56 192.064a21.333333 21.333333 0 0 1-21.354667-21.333334l0.021333-43.157333v-0.042667l0.149334-2.496a21.333333 21.333333 0 0 1 21.248-18.773333l85.205333 0.170667a21.333333 21.333333 0 0 1 21.290667 21.333333v42.837333a21.333333 21.333333 0 0 1-21.312 21.333334l-85.248 0.128zM746.666667 426.666667H533.333333a21.333333 21.333333 0 0 1-21.333333-21.333334v-42.666666a21.333333 21.333333 0 0 1 21.333333-21.333334h213.333334a21.333333 21.333333 0 0 1 21.333333 21.333334v42.666666a21.333333 21.333333 0 0 1-21.333333 21.333334z m-426.56 192.064a21.333333 21.333333 0 0 1-21.354667-21.333334l0.021333-43.157333v-0.042667l0.149334-2.496a21.333333 21.333333 0 0 1 21.248-18.773333l85.205333 0.170667a21.333333 21.333333 0 0 1 21.290667 21.333333v42.837333a21.333333 21.333333 0 0 1-21.312 21.333334l-85.248 0.128zM746.666667 618.666667H533.333333a21.333333 21.333333 0 0 1-21.333333-21.333334v-42.666666a21.333333 21.333333 0 0 1 21.333333-21.333334h213.333334a21.333333 21.333333 0 0 1 21.333333 21.333334v42.666666a21.333333 21.333333 0 0 1-21.333333 21.333334z"  horiz-adv-x="1024" />

    
    <glyph glyph-name="shujuguanli" unicode="&#58904;" d="M843.861333 810.666667C896 810.666667 938.666667 768 938.666667 715.861333v-663.722666C938.666667 0 896-42.666667 843.861333-42.666667H180.138667C128-42.666667 85.333333 0 85.333333 52.138667V715.861333C85.333333 768 128 810.666667 180.138667 810.666667zM320 469.333333h-42.666667a21.333333 21.333333 0 0 1-21.333333-21.333333v-298.666667a21.333333 21.333333 0 0 1 21.333333-21.333333h42.666667a21.333333 21.333333 0 0 1 21.333333 21.333333V448a21.333333 21.333333 0 0 1-21.333333 21.333333z m213.333333 170.666667h-42.666666a21.333333 21.333333 0 0 1-21.333334-21.333333v-469.333334a21.333333 21.333333 0 0 1 21.333334-21.333333h42.666666a21.333333 21.333333 0 0 1 21.333334 21.333333V618.666667a21.333333 21.333333 0 0 1-21.333334 21.333333z m213.333334-341.333333h-42.666667a21.333333 21.333333 0 0 1-21.333333-21.333334v-128a21.333333 21.333333 0 0 1 21.333333-21.333333h42.666667a21.333333 21.333333 0 0 1 21.333333 21.333333v128a21.333333 21.333333 0 0 1-21.333333 21.333334z"  horiz-adv-x="1024" />

    
    <glyph glyph-name="kanbanline" unicode="&#58905;" d="M825.728 28.437333a20.906667 20.906667 0 0 0 20.906667-20.906666v-20.906667a20.906667 20.906667 0 0 0-20.906667-20.906667H198.272a20.906667 20.906667 0 0 0-20.906667 20.906667v20.906667a20.906667 20.906667 0 0 0 20.906667 20.906666h627.456zM909.376 802.304a20.906667 20.906667 0 0 0 20.906667-20.906667v-648.384a20.906667 20.906667 0 0 0-20.906667-20.906666H114.624a20.906667 20.906667 0 0 0-20.906667 20.906666V781.376a20.906667 20.906667 0 0 0 20.906667 20.906667h794.752z m-50.816-71.68H165.354667v-546.773333h693.205333V730.624zM745.941333 616.32a20.906667 20.906667 0 0 0 20.693334-5.269333l14.784-14.784 2.986666-3.797334a20.906667 20.906667 0 0 0-2.986666-25.792L558.741333 344l-3.776-2.986667a20.906667 20.906667 0 0 0-25.813333 2.986667l-110.698667 110.72-130.346666-130.346667-4.586667-3.498666a20.949333 20.949333 0 0 0-21.205333 0.490666l-3.776 2.986667-14.784 14.805333-2.986667 3.776a20.906667 20.906667 0 0 0 2.986667 25.813334l159.914666 159.914666 4.608 3.477334a20.949333 20.949333 0 0 0 21.205334-0.490667l3.776-2.986667 110.698666-110.72 193.088 193.109334 3.797334 2.986666z"  horiz-adv-x="1024" />

    
    <glyph glyph-name="didian" unicode="&#58906;" d="M512 810.666667c188.501333 0 341.333333-152.405333 341.333333-340.309334 0-116.608-98.56-276.48-295.637333-479.744l-23.893333-24.362666a31.146667 31.146667 0 0 0-40.96-2.304l-2.901334 2.56-11.946666 12.117333C273.066667 187.562667 170.666667 351.488 170.666667 470.357333 170.666667 658.346667 323.498667 810.666667 512 810.666667z m0-61.866667c-154.24 0-279.253333-124.672-279.253333-278.442667 0-94.122667 88.32-239.018667 268.16-426.368l11.093333-11.52 11.093333 11.52 22.058667 23.210667c164.906667 176.170667 246.101333 312.917333 246.101333 403.2 0 153.770667-125.013333 278.442667-279.253333 278.442667v-0.042667z m0-123.733333a154.922667 154.922667 0 0 0 155.136-154.709334A154.88 154.88 0 0 0 512 315.733333a154.88 154.88 0 0 0-155.136 154.666667A154.922667 154.922667 0 0 0 512 625.066667z m0-61.866667a92.970667 92.970667 0 0 1-93.098667-92.842667c0-51.242667 41.685333-92.8 93.098667-92.8a92.928 92.928 0 0 1 93.098667 92.8A92.928 92.928 0 0 1 512 563.2z"  horiz-adv-x="1024" />

    
    <glyph glyph-name="moban" unicode="&#58907;" d="M896 525.333333c0-3.434667-2.773333-6.229333-6.229333-6.229333H136.405333a6.229333 6.229333 0 0 0-6.208 6.229333V761.770667c0 3.434667 2.773333 6.229333 6.208 6.229333h753.365334c3.434667 0 6.229333-2.773333 6.229333-6.229333v-236.437334z m-363.754667-516.906666c0-3.456-2.773333-6.229333-6.229333-6.229334H136.405333a6.229333 6.229333 0 0 0-6.208 6.208V436.309333c0 3.434667 2.773333 6.229333 6.208 6.229334h389.610667c3.434667 0 6.229333-2.794667 6.229333-6.229334v-427.904z m363.754667 0c0-3.456-2.773333-6.229333-6.229333-6.229334h-255.573334a6.229333 6.229333 0 0 0-6.229333 6.208V436.309333c0 3.434667 2.773333 6.229333 6.229333 6.229334h255.573334c3.434667 0 6.229333-2.794667 6.229333-6.229334v-427.904z"  horiz-adv-x="1024" />

    
    <glyph glyph-name="guiyinfenxi" unicode="&#58909;" d="M796.373333 810.666667c66.325333 0 123.733333-45.056 138.090667-108.373334 14.336-63.338667-18.261333-127.893333-78.4-155.264-57.216-26.026667-124.736-11.733333-165.888 34.090667l-208.576-97.365333a207.082667 207.082667 0 0 0 19.989333-89.088c0-32.448-7.424-63.146667-20.693333-90.538667l208.725333-97.450667c40.832 46.933333 109.76 62.421333 168.362667 35.157334 65.685333-30.549333 96.938667-104.853333 72.277333-171.754667-24.661333-66.922667-97.216-104.618667-167.722666-87.168-70.506667 17.450667-115.968 84.373333-105.109334 154.709333l4.458667 12.096-217.642667 101.568a207.573333 207.573333 0 0 0-144.96-64.533333l-5.824-0.085333C178.517333 186.666667 85.333333 279.786667 85.333333 394.666667s93.184 208 208.128 208a207.616 207.616 0 0 0 151.957334-65.877334l214.357333 100.074667-0.96 3.690667a136.042667 136.042667 0 0 0 24.917333 115.221333A142.677333 142.677333 0 0 0 796.373333 810.666667z"  horiz-adv-x="1024" />

    
    <glyph glyph-name="shangchuanshuju" unicode="&#58910;" d="M319.744 789.333333l161.706667-140.330666h433.770666c5.12 0 10.026667-2.346667 13.653334-6.485334 3.626667-4.138667 5.653333-9.749333 5.653333-15.616v-610.837333c0-12.202667-8.64-22.101333-19.306667-22.101333H105.258667c-10.666667 0-19.328 9.898667-19.328 22.101333V766.656l0.149333 2.581333c1.130667 11.114667 9.386667 19.498667 19.2 19.498667h105.749333L319.744 789.333333z m212.885333-270.634666a17.557333 17.557333 0 0 1-25.429333 0l-125.610667-125.226667c-6.08-6.058667-8.234667-15.786667-5.397333-24.405333 2.837333-8.618667 10.048-14.336 18.112-14.336h71.68v-154.453334c0-12.202667 8.661333-22.08 19.328-22.08h68.48c5.12 0 10.048 2.346667 13.674667 6.464 3.626667 4.138667 5.653333 9.770667 5.653333 15.616V354.773333h71.893333c8.042667 0 15.253333 5.696 18.069334 14.293334 2.837333 8.618667 0.704 18.325333-5.333334 24.384l-125.12 125.269333z"  horiz-adv-x="1024" />

    
    <glyph glyph-name="shijianfenxi" unicode="&#58911;" d="M479.36 810.666667c217.642667 0 394.048-176.32 394.048-393.813334 0-97.365333-35.328-186.453333-93.866667-255.189333l152.874667-152.789333a21.333333 21.333333 0 0 0 0-30.186667l-15.104-15.104c-8.341333-8.32-21.866667-8.32-30.208 0l-152.917333 152.853333a392.597333 392.597333 0 0 0-254.805334-93.44C261.76 23.018667 85.333333 199.36 85.333333 416.853333 85.333333 634.346667 261.76 810.666667 479.36 810.666667z m196.117333-268.970667l-1.984-1.706667-173.930666-169.6-99.072 96.64a21.333333 21.333333 0 0 1-27.797334 1.706667l-1.984-1.706667-141.568-138.048-0.384-0.384a21.333333 21.333333 0 0 1-1.408-28.181333l1.792-1.984 9.749334-9.493333a21.333333 21.333333 0 0 1 27.797333-1.728l1.984 1.706666 116.906667 114.026667 99.093333-96.618667a21.333333 21.333333 0 0 1 27.797333-1.706666l2.005334 1.706666 198.528 193.621334 0.384 0.362666a21.333333 21.333333 0 0 1 1.429333 28.181334l-1.813333 2.005333-9.728 9.493333a21.333333 21.333333 0 0 1-27.797334 1.706667z"  horiz-adv-x="1024" />

    
    <glyph glyph-name="shujukuzhilian" unicode="&#58912;" d="M756.017021 808.197447a21.569362 21.569362 0 0 0 21.569362-21.569362v-86.277447h107.868596a21.569362 21.569362 0 0 0 21.569361-21.569361v-582.220256a21.569362 21.569362 0 0 0-21.569361-21.569361h-107.846809v-109.262979a21.569362 21.569362 0 0 0-19.042042-21.416851l-2.527319-0.152511H303.234723a21.569362 21.569362 0 0 0-21.569361 21.569362v109.284766H152.292766a21.569362 21.569362 0 0 0-21.569362 21.569362V678.781277a21.569362 21.569362 0 0 0 21.569362 21.569361h129.350808l0.021788 86.233873a21.569362 21.569362 0 0 0 21.569361 21.569361h452.804086zM712.921872 743.489362H346.35166v-43.138724h107.846808a21.569362 21.569362 0 0 0 21.547575-21.569361v-582.220256a21.569362 21.569362 0 0 0-21.569362-21.569361h-107.846809v-66.146043h366.570213v66.16783h-129.329021a21.569362 21.569362 0 0 0-21.569362 21.569362V678.781277a21.569362 21.569362 0 0 0 21.569362 21.569361h129.307234L712.900085 743.489362z m107.868596-431.278298h-172.511319a21.569362 21.569362 0 0 1-21.416851-19.042043l-0.152511-2.527319v-21.569362a21.569362 21.569362 0 0 1 19.042043-21.395063l2.527319-0.152511h172.511319a21.569362 21.569362 0 0 1 21.416851 19.042043l0.152511 2.505531v21.569362a21.569362 21.569362 0 0 1-21.569362 21.569362z m-431.278298 0H216.979064a21.569362 21.569362 0 0 1-21.416851-19.042043l-0.152511-2.527319v-21.569362a21.569362 21.569362 0 0 1 19.042043-21.395063l2.527319-0.152511h172.511319a21.569362 21.569362 0 0 1 21.416851 19.042043l0.152511 2.505531v21.569362a21.569362 21.569362 0 0 1-21.569362 21.569362z m431.278298 215.628255h-172.511319a21.569362 21.569362 0 0 1-21.416851-19.042042l-0.152511-2.505532v-21.569362a21.569362 21.569362 0 0 1 19.042043-21.416851l2.527319-0.152511h172.511319a21.569362 21.569362 0 0 1 21.416851 19.042043l0.152511 2.527319v21.569362a21.569362 21.569362 0 0 1-21.569362 21.569361z m-431.278298 0H216.979064a21.569362 21.569362 0 0 1-21.416851-19.042042l-0.152511-2.505532v-21.569362a21.569362 21.569362 0 0 1 19.042043-21.416851l2.527319-0.152511h172.511319a21.569362 21.569362 0 0 1 21.416851 19.042043l0.152511 2.527319v21.569362a21.569362 21.569362 0 0 1-21.569362 21.569361z"  horiz-adv-x="1045" />

    
    <glyph glyph-name="tixing" unicode="&#58913;" d="M640 19.754667c11.776 0 21.333333-9.301333 21.333333-20.778667v-20.821333c0-11.52-9.557333-20.821333-21.333333-20.821334H384a21.077333 21.077333 0 0 0-21.333333 20.821334v20.821333c0 11.477333 9.557333 20.778667 21.333333 20.778667h256zM106.666667 103.04a21.077333 21.077333 0 0 0-21.333334 20.778667v20.821333c0 11.52 9.557333 20.821333 21.333334 20.821333l96 0.042667v301.738667c0 138.752 96 255.658667 226.688 290.901333a19.669333 19.669333 0 0 0-3.242667 10.88v20.821333c0 11.52 9.557333 20.821333 21.333333 20.821334h129.109334c11.776 0 21.333333-9.301333 21.333333-20.821334v-20.821333a20.352 20.352 0 0 0-3.2-10.922667C725.333333 722.901333 821.333333 605.994667 821.333333 467.2v-301.738667l96-0.042666c11.776 0 21.333333-9.301333 21.333334-20.821334v-20.821333c0-11.477333-9.557333-20.778667-21.333334-20.778667h-810.666666zM512 706.56c-133.418667 0-241.92-103.893333-245.248-233.258667l-0.085333-6.101333v-301.781333h490.666666v301.781333c0 130.133333-106.496 236.074667-239.104 239.274667L512 706.602667z"  horiz-adv-x="1024" />

    
    <glyph glyph-name="tianjia" unicode="&#58914;" d="M522.666667 810.666667a21.333333 21.333333 0 0 0 21.333333-21.333334v-373.376h373.333333a21.333333 21.333333 0 0 0 21.333334-21.333333v-21.333333a21.333333 21.333333 0 0 0-21.333334-21.333334h-373.333333V-21.333333a21.333333 21.333333 0 0 0-21.333333-21.333334h-21.333334a21.333333 21.333333 0 0 0-21.333333 21.333334v373.290666H106.666667a21.333333 21.333333 0 0 0-21.333334 21.333334v21.333333a21.333333 21.333333 0 0 0 21.333334 21.333333h373.333333V789.333333a21.333333 21.333333 0 0 0 21.333333 21.333334h21.333334z"  horiz-adv-x="1024" />

    
    <glyph glyph-name="xianshangshangdian" unicode="&#58915;" d="M837.290667 810.325333H180.48a21.290667 21.290667 0 0 1-19.456-12.608l-11.093333-24.917333-7.744-17.706667-10.666667-25.024-9.6-23.232-5.802667-14.485333-5.333333-13.674667-4.821333-12.906666-4.373334-12.096-2.005333-5.76-3.626667-10.901334-3.2-10.154666-2.666666-9.365334-1.173334-4.373333c-21.546667-83.562667 66.389333-212.757333 182.250667-235.690667l5.610667-0.981333c43.072-6.613333 90.24 7.786667 126.677333 35.797333l0.896 0.746667 1.493333-0.938667a189.568 189.568 0 0 1 98.773334-27.882666l6.784 0.128a190.378667 190.378667 0 0 1 99.84 32.725333l2.730666 1.92 2.965334-2.410667c33.834667-26.453333 74.88-41.216 118.165333-41.216 110.954667 0 201.92 106.197333 201.92 226.922667v6.528l-80.149333 188.586667a21.290667 21.290667 0 0 1-19.584 12.970666z m-28.437334-64.256l63.765334-150.058666-0.170667-4.394667c-4.992-82.645333-67.264-152.042667-137.344-152.042667-36.245333 0-70.336 15.765333-95.914667 43.648l-22.08 24.085334-23.701333-22.485334c-24.725333-23.424-55.872-36.394667-88.789333-36.394666-29.930667 0-58.453333 10.730667-82.026667 30.442666l-23.424 19.541334-20.736-22.357334c-24.789333-26.752-64.085333-41.642667-94.784-35.562666-80.64 15.957333-144.554667 109.845333-132.48 156.586666l2.24 8.170667 2.816 9.28 3.349333 10.176 1.856 5.418667 4.138667 11.562666 4.672 12.458667 5.162667 13.376 5.696 14.250667 6.229333 15.125333 6.72 16.064 7.253333 16.938667 7.082667 16.170666h600.469333zM191.530667 475.2v-452.693333h639.146666v452.693333h63.893334v-495.274667a21.290667 21.290667 0 0 0-21.290667-21.290666H148.949333a21.290667 21.290667 0 0 0-21.290666 21.290666V475.2h63.872z"  horiz-adv-x="1024" />

    
    </font>
</defs>
</svg>
